<?xml version="1.0" encoding="UTF-8" standalone="no"?>
<!-- Generator: Adobe Illustrator 24.2.0, SVG Export Plug-In . SVG Version: 6.00 Build 0)  -->

<svg
   version="1.1"
   id="Logo"
   x="0px"
   y="0px"
   viewBox="0 0 500 500"
   xml:space="preserve"
   sodipodi:docname="twitter.svg"
   width="500"
   height="500"
   inkscape:version="1.2 (dc2aeda, 2022-05-15)"
   xmlns:inkscape="http://www.inkscape.org/namespaces/inkscape"
   xmlns:sodipodi="http://sodipodi.sourceforge.net/DTD/sodipodi-0.dtd"
   xmlns="http://www.w3.org/2000/svg"
   xmlns:svg="http://www.w3.org/2000/svg"><defs
   id="defs9" /><sodipodi:namedview
   id="namedview7"
   pagecolor="#505050"
   bordercolor="#eeeeee"
   borderopacity="1"
   inkscape:showpageshadow="0"
   inkscape:pageopacity="0"
   inkscape:pagecheckerboard="0"
   inkscape:deskcolor="#505050"
   showgrid="false"
   inkscape:zoom="0.58120195"
   inkscape:cx="357.87905"
   inkscape:cy="240.01984"
   inkscape:window-width="1440"
   inkscape:window-height="847"
   inkscape:window-x="0"
   inkscape:window-y="25"
   inkscape:window-maximized="1"
   inkscape:current-layer="Logo_1_" />
<style
   type="text/css"
   id="style2">
	.st0{fill:#1D9BF0;}
</style>
<g
   id="Logo_1_">
	<path
   id="white_background"
   class="st0"
   d="m 448.8117,148.00184 c 0.30469,4.40788 0.30469,8.81576 0.30469,13.26428 0,135.54743 -103.18911,291.87486 -291.87487,291.87486 v -0.0812 C 101.50316,453.14098 46.922615,437.17518 3e-6,407.07159 c 8.1048136,0.97501 16.250253,1.46252 24.416005,1.48283 46.191346,0.0406 91.062362,-15.45805 127.401992,-43.99757 -43.896,-0.83282 -82.388783,-29.45358 -95.835879,-71.23704 15.376802,2.96567 31.220801,2.35629 46.313229,-1.76721 -47.856996,-9.66891 -82.287223,-51.71644 -82.287223,-100.54846 0,-0.44687 0,-0.87344 0,-1.30001 14.259598,7.94231 30.225467,12.35019 46.556974,12.8377 C 21.490963,172.41792 7.5969961,112.45448 34.816171,65.572495 86.898231,129.65943 163.74162,168.61942 246.23197,172.74292 c -8.26731,-35.62867 3.02661,-72.963631 29.67703,-98.009336 41.31626,-38.838111 106.29697,-36.847454 145.13508,4.4485 22.9738,-4.52976 44.99288,-12.959575 65.14319,-24.903507 -7.65792,23.745678 -23.68474,43.916301 -45.09445,56.733693 C 461.42595,108.61536 481.2919,103.17153 500,94.863577 486.2279,115.5014 468.88075,133.47824 448.8117,148.0019 Z"
   style="fill:#000000;fill-opacity:1;stroke-width:2.03129" />
</g>
</svg>
