<?xml version="1.0" encoding="UTF-8" standalone="no"?>
<svg
   height="500"
   viewBox="20.7 244.9 120.06 500.00001"
   width="500"
   version="1.1"
   id="svg140"
   sodipodi:docname="docker-3.svg"
   inkscape:version="1.2 (dc2aeda, 2022-05-15)"
   xmlns:inkscape="http://www.inkscape.org/namespaces/inkscape"
   xmlns:sodipodi="http://sodipodi.sourceforge.net/DTD/sodipodi-0.dtd"
   xmlns="http://www.w3.org/2000/svg"
   xmlns:svg="http://www.w3.org/2000/svg">
  <defs
     id="defs144" />
  <sodipodi:namedview
     id="namedview142"
     pagecolor="#505050"
     bordercolor="#eeeeee"
     borderopacity="1"
     inkscape:showpageshadow="0"
     inkscape:pageopacity="0"
     inkscape:pagecheckerboard="0"
     inkscape:deskcolor="#505050"
     showgrid="false"
     inkscape:zoom="0.49883912"
     inkscape:cx="154.35838"
     inkscape:cy="379.88199"
     inkscape:window-width="1440"
     inkscape:window-height="847"
     inkscape:window-x="0"
     inkscape:window-y="25"
     inkscape:window-maximized="1"
     inkscape:current-layer="svg140" />
  <g
     id="g473"
     transform="matrix(2.3189691,0,0,2.3189691,-217.70619,-252.38779)">
    <path
       d="m 234.4,303.4 c -0.6,-0.5 -6,-4.6 -17.6,-4.6 -3,0 -6.1,0.3 -9.1,0.8 -2.2,-15.3 -14.9,-22.7 -15.4,-23.1 l -3.1,-1.8 -2,2.9 c -2.5,3.9 -4.4,8.3 -5.5,12.8 -2.1,8.7 -0.8,16.9 3.6,23.9 -5.3,3 -13.9,3.7 -15.7,3.8 h -142 c -3.7,0 -6.7,3 -6.7,6.7 -0.2,12.4 1.9,24.8 6.2,36.5 4.9,12.8 12.2,22.3 21.6,28.1 10.6,6.5 27.9,10.2 47.4,10.2 8.8,0 17.6,-0.8 26.3,-2.4 12.1,-2.2 23.7,-6.4 34.4,-12.5 8.8,-5.1 16.7,-11.6 23.4,-19.2 11.3,-12.7 18,-26.9 22.9,-39.5 h 2 c 12.3,0 19.9,-4.9 24.1,-9.1 2.8,-2.6 4.9,-5.8 6.4,-9.4 l 0.9,-2.6 z"
       id="path134"
       style="fill:#0091e2"
       sodipodi:nodetypes="cscccccccscccsccccscccc" />
    <path
       d="m 40.8,314 h 19 c 0.9,0 1.7,-0.7 1.7,-1.7 v -17 c 0,-0.9 -0.7,-1.7 -1.7,-1.7 h -19 c -0.9,0 -1.7,0.7 -1.7,1.7 v 17 c 0.1,1 0.8,1.7 1.7,1.7 z m 26.2,0 h 19 c 0.9,0 1.7,-0.7 1.7,-1.7 v -17 c 0,-0.9 -0.7,-1.7 -1.7,-1.7 H 67 c -0.9,0 -1.7,0.7 -1.7,1.7 v 17 c 0.1,1 0.8,1.7 1.7,1.7 m 26.7,0 h 19 c 0.9,0 1.7,-0.7 1.7,-1.7 v -17 c 0,-0.9 -0.7,-1.7 -1.7,-1.7 h -19 c -0.9,0 -1.7,0.7 -1.7,1.7 v 17 c 0,1 0.7,1.7 1.7,1.7 z m 26.3,0 h 19 c 0.9,0 1.7,-0.7 1.7,-1.7 v -17 c 0,-0.9 -0.7,-1.7 -1.7,-1.7 h -19 c -0.9,0 -1.7,0.7 -1.7,1.7 v 17 c 0,1 0.8,1.7 1.7,1.7 z M 67,289.7 h 19 c 0.9,0 1.7,-0.8 1.7,-1.7 v -17 c 0,-0.9 -0.7,-1.7 -1.7,-1.7 H 67 c -0.9,0 -1.7,0.7 -1.7,1.7 v 17 c 0.1,0.9 0.8,1.7 1.7,1.7 m 26.7,0 h 19 c 0.9,0 1.7,-0.8 1.7,-1.7 v -17 c 0,-0.9 -0.7,-1.7 -1.7,-1.7 h -19 c -0.9,0 -1.7,0.7 -1.7,1.7 v 17 c 0,0.9 0.7,1.7 1.7,1.7 m 26.3,0 h 19 c 0.9,0 1.7,-0.8 1.7,-1.7 v -17 c 0,-0.9 -0.8,-1.7 -1.7,-1.7 h -19 c -0.9,0 -1.7,0.7 -1.7,1.7 v 17 c 0,0.9 0.8,1.7 1.7,1.7 m 0,-24.4 h 19 c 0.9,0 1.7,-0.7 1.7,-1.7 v -17 c 0,-0.9 -0.8,-1.7 -1.7,-1.7 h -19 c -0.9,0 -1.7,0.7 -1.7,1.7 v 17 c 0,0.9 0.8,1.7 1.7,1.7 m 26.5,48.7 h 19 c 0.9,0 1.7,-0.7 1.7,-1.7 v -17 c 0,-0.9 -0.7,-1.7 -1.7,-1.7 h -19 c -0.9,0 -1.7,0.7 -1.7,1.7 v 17 c 0.1,1 0.8,1.7 1.7,1.7"
       id="path136"
       style="fill:#0091e2" />
  </g>
</svg>
