<?xml version="1.0" encoding="UTF-8" standalone="no"?>
<svg
   fill-rule="evenodd"
   stroke-miterlimit="1.414"
   viewBox="0 0 500 500"
   clip-rule="evenodd"
   stroke-linejoin="round"
   aria-label="Logo"
   version="1.1"
   id="svg156"
   sodipodi:docname="hugo.svg"
   width="500"
   height="500"
   inkscape:version="1.2 (dc2aeda, 2022-05-15)"
   xmlns:inkscape="http://www.inkscape.org/namespaces/inkscape"
   xmlns:sodipodi="http://sodipodi.sourceforge.net/DTD/sodipodi-0.dtd"
   xmlns="http://www.w3.org/2000/svg"
   xmlns:svg="http://www.w3.org/2000/svg">
  <defs
     id="defs138" />
  <sodipodi:namedview
     id="namedview136"
     pagecolor="#505050"
     bordercolor="#eeeeee"
     borderopacity="1"
     inkscape:showpageshadow="0"
     inkscape:pageopacity="0"
     inkscape:pagecheckerboard="0"
     inkscape:deskcolor="#505050"
     showgrid="false"
     inkscape:zoom="0.472"
     inkscape:cx="250"
     inkscape:cy="250"
     inkscape:window-width="1440"
     inkscape:window-height="430"
     inkscape:window-x="0"
     inkscape:window-y="25"
     inkscape:window-maximized="0"
     inkscape:current-layer="svg156" />
  <path
     fill="#ff4088"
     d="M 455.47533,320.72894 V 162.73972 c 0,-20.54503 -10.8812,-39.55223 -28.59349,-49.96044 C 388.86614,90.444414 321.70515,50.983939 280.57374,26.815288 258.85013,14.057672 231.86684,14.344564 210.42752,27.564823 174.02335,50.012128 117.22663,85.033538 80.563991,107.64497 58.452685,121.27876 44.986893,145.39315 44.986893,171.36842 v 161.76017 c 0,25.76593 13.672556,49.59342 35.913113,62.59527 l 135.329964,79.10447 c 17.98886,10.51935 40.20354,10.74808 58.4121,0.60737 39.51862,-22.01566 109.50977,-60.99153 149.82961,-83.45045 19.1261,-10.66152 30.9765,-30.83437 30.9765,-52.72597 v -18.53163 z"
     id="path132"
     style="stroke-width:1.29229" />
  <path
     fill="#c9177e"
     d="m 246.30315,0 h 0.35798 l 0.31919,0.00400004 h 1.82732 l 0.31921,0.01293346 h 0.0388 l 0.31921,0.01293346 h 0.0349 l 0.32307,0.01293347 h 0.0258 l 0.32308,0.01293346 h 0.0388 l 0.31016,0.01293346 h 0.0389 l 0.31015,0.01293346 h 0.0258 l 0.32307,0.01293346 h 0.0389 l 0.32308,0.02584471 h 0.0388 l 0.31016,0.0258447 h 0.0258 l 0.31015,0.0258447 h 0.0389 l 0.32307,0.0258447 h 0.0258 l 0.31015,0.0258447 h 0.0389 l 0.32308,0.0258447 h 0.0388 l 0.32309,0.0258447 h 0.0389 l 0.32307,0.0258558 h 0.0389 l 0.31016,0.0258447 h 0.0388 l 0.31013,0.0258447 h 0.0389 l 0.32308,0.0258447 h 0.0389 l 0.32308,0.0387782 h 0.0389 l 0.32308,0.0387671 h 0.0258 l 0.31015,0.0387782 h 0.0388 l 0.31016,0.038767 h 0.0388 l 0.32309,0.0387671 h 0.0388 l 0.32307,0.0387782 h 0.0258 l 0.31016,0.0387671 h 0.0388 l 0.32306,0.0387671 h 0.0388 l 0.31014,0.0516894 0.0389,0.0129335 0.32309,0.0516894 h 0.0388 l 0.31017,0.0516894 h 0.0258 l 0.32307,0.0516894 h 0.0388 l 0.31015,0.0516894 h 0.0388 l 0.31016,0.0516894 h 0.0258 l 0.32308,0.051689 h 0.0388 l 0.31016,0.051689 0.0389,0.012934 0.31012,0.051689 0.0388,0.012933 0.31015,0.064612 h 0.0389 l 0.31016,0.051689 h 0.0388 l 0.31014,0.064601 h 0.0388 l 0.32307,0.064612 h 0.0258 l 0.31017,0.064601 h 0.0389 l 0.31016,0.064601 h 0.0258 l 0.32307,0.064601 0.0389,0.012933 0.32307,0.064601 h 0.0258 l 0.31016,0.077534 0.0389,0.012933 0.31015,0.077534 h 0.0388 l 0.32308,0.077534 0.0258,0.012934 0.31014,0.064612 0.0388,0.012933 0.31017,0.064601 0.0258,0.012933 0.31017,0.077534 h 0.0387 l 0.31015,0.077534 0.0388,0.012933 0.31016,0.077534 0.0258,0.012933 0.32307,0.077534 0.0258,0.012933 0.31017,0.077534 0.0388,0.012934 0.31015,0.077534 h 0.0258 l 0.31015,0.090468 h 0.0388 l 0.32307,0.077534 0.0388,0.012933 0.31017,0.077534 h 0.0388 l 0.31014,0.090468 0.0389,0.012933 0.31016,0.090467 0.0389,0.012933 0.31015,0.090468 0.0388,0.012933 0.31016,0.090468 0.0258,0.012933 0.31016,0.090467 0.0389,0.012934 0.31014,0.090468 0.0389,0.012933 0.31016,0.090468 0.0388,0.012934 0.31013,0.1033899 0.0258,0.012933 0.31016,0.10339 h 0.0388 l 0.31016,0.1033899 h 0.0388 l 0.31014,0.1033899 0.0389,0.012933 0.31016,0.1033788 0.0389,0.012933 0.31015,0.103401 0.0258,0.012933 0.31015,0.1033899 0.0387,0.012933 0.31016,0.1033899 0.0258,0.012933 0.31015,0.103401 0.0258,0.012933 0.29724,0.1033899 0.0388,0.012933 0.29722,0.1033789 0.0389,0.012933 0.29724,0.1162989 0.0388,0.012933 0.31013,0.1163001 0.0389,0.012933 0.29724,0.116299 0.0258,0.012933 0.31014,0.103401 0.0258,0.012933 0.31016,0.1163001 0.0389,0.012933 0.31015,0.116299 0.0388,0.012933 0.29724,0.116299 0.0388,0.012933 0.29722,0.1292302 0.0258,0.012933 0.31014,0.1162989 0.0389,0.012933 0.29722,0.1292324 0.0389,0.012933 0.31015,0.1292291 0.0388,0.012933 0.31012,0.1292302 0.0258,0.012933 0.31016,0.1292313 0.0258,0.012933 0.29723,0.1292302 0.0258,0.012933 0.29723,0.1292301 0.0258,0.012933 0.31015,0.1292313 0.0258,0.012933 0.29724,0.1292302 0.0388,0.012933 0.29721,0.1292313 0.0389,0.012933 0.29723,0.1292313 0.0258,0.012933 0.29721,0.1421514 0.0389,0.012933 0.29722,0.1421525 0.0389,0.012933 0.29723,0.1421526 0.0258,0.012933 0.29723,0.1421548 0.0258,0.012933 0.29722,0.1421537 0.0389,0.012933 0.29721,0.1421559 0.0389,0.012934 0.29723,0.1421525 0.0387,0.012933 0.29723,0.1421525 0.0258,0.012933 0.29721,0.1550771 0.0258,0.025845 0.29724,0.1421537 0.0258,0.012933 0.2843,0.155076 0.0389,0.012934 0.29722,0.1421547 0.0258,0.012934 0.29722,0.155076 0.0389,0.012934 0.28431,0.1550759 0.0388,0.025845 0.29722,0.155076 0.0389,0.012933 0.29724,0.155076 0.0258,0.01293 0.2843,0.155077 0.0389,0.02585 0.29722,0.155077 0.0258,0.02585 0.2843,0.167998 0.0258,0.02585 0.28432,0.168001 0.0388,0.01293 0.28429,0.168001 0.0258,0.01293 0.28434,0.167999 0.0258,0.02585 0.2843,0.168 0.0388,0.02584 0.27139,0.168001 h 0.0258 l 146.41792,86.028619 0.24556,0.142157 0.0258,0.02578 0.24552,0.142157 0.0389,0.01289 0.23263,0.155068 0.0258,0.02578 0.23262,0.142146 0.0258,0.02578 0.2326,0.142157 0.0258,0.01289 0.23262,0.142168 0.0258,0.01278 0.23262,0.142168 0.0258,0.01278 0.23264,0.142157 0.0388,0.01289 0.23261,0.155079 0.0258,0.01289 0.2326,0.155079 0.0388,0.01289 0.23262,0.142146 0.0258,0.01289 0.23263,0.15508 0.0258,0.02578 0.23262,0.155079 0.0258,0.02578 0.21969,0.142146 0.0389,0.01289 0.23261,0.155066 0.0258,0.0129 0.2326,0.15507 0.0258,0.0129 0.21968,0.15506 0.0258,0.0129 0.21968,0.15506 0.0258,0.0129 0.21971,0.15509 0.0258,0.0258 0.2197,0.15508 0.0258,0.0128 0.21969,0.16799 0.0388,0.0258 0.2197,0.15508 0.0258,0.0129 0.2197,0.15508 0.0258,0.0129 0.21969,0.15507 0.0258,0.0258 0.21967,0.15507 0.0258,0.0129 0.21969,0.15508 0.0258,0.0258 0.2197,0.15508 0.0258,0.0258 0.21968,0.16799 0.0389,0.0258 0.20677,0.168 0.0389,0.0258 0.21969,0.168 0.0388,0.0129 0.21971,0.168 0.0258,0.0258 0.21968,0.168 0.0258,0.0258 0.20677,0.16799 0.0388,0.0258 0.2197,0.18092 0.0388,0.0388 0.41355,0.33598 0.0518,0.0389 0.41351,0.34891 0.0518,0.0389 0.42646,0.34892 0.0518,0.0388 0.42646,0.34892 0.0518,0.0389 0.41352,0.3489 0.0517,0.0518 0.41355,0.34892 0.0518,0.0387 0.40059,0.36184 0.0518,0.0387 0.4006,0.36186 0.0518,0.0387 0.4006,0.37477 0.0518,0.0389 0.38771,0.36184 0.0517,0.0389 0.40062,0.37477 0.0518,0.0518 0.38769,0.37478 0.0518,0.0517 0.38769,0.37477 0.0517,0.0518 0.37477,0.37477 0.0518,0.0518 0.37475,0.38768 0.0518,0.0517 0.37479,0.38768 0.0388,0.0518 0.37477,0.38771 0.0517,0.0517 0.36186,0.38771 0.0518,0.0517 0.36184,0.38769 0.0518,0.0517 0.36184,0.38771 0.0518,0.0517 0.36186,0.40063 0.0518,0.0517 0.34891,0.41353 0.0389,0.0517 0.36184,0.40059 0.0517,0.0518 0.34892,0.41354 0.0518,0.0517 0.34892,0.41353 0.0389,0.0517 0.34892,0.41354 0.0518,0.0518 0.33601,0.41352 0.0389,0.0517 0.336,0.41355 0.0518,0.0517 0.33601,0.42646 0.0389,0.0518 0.32308,0.42645 0.0388,0.0518 0.32309,0.42646 0.0389,0.0518 0.32308,0.42645 0.0388,0.0647 0.32308,0.43938 0.0389,0.0517 0.32307,0.42645 0.0389,0.0647 0.31013,0.43937 0.0388,0.0518 0.31017,0.43939 0.0388,0.0517 0.31016,0.43938 0.0389,0.0647 0.29724,0.43938 0.0388,0.0647 0.29722,0.45231 0.0387,0.0647 0.28432,0.43938 0.0387,0.0518 0.2843,0.43938 0.0389,0.0517 0.29724,0.45231 0.0387,0.0517 0.2843,0.45232 0.0389,0.0647 0.27139,0.45231 0.0389,0.0647 0.2843,0.45229 0.0389,0.0647 0.27138,0.4523 0.0389,0.0647 0.27137,0.46523 0.0389,0.0518 0.25847,0.46524 0.0388,0.0647 0.25847,0.46523 0.0388,0.0647 0.25847,0.46521 0.0389,0.0647 0.25847,0.46523 0.0258,0.0647 0.25847,0.47815 0.0258,0.0647 0.24552,0.47814 0.0258,0.0647 0.24556,0.47816 0.0387,0.0517 0.23263,0.49109 0.0258,0.0647 0.24553,0.47816 0.0258,0.0647 0.23263,0.47817 0.0388,0.0647 0.21968,0.49108 0.0258,0.0647 0.21969,0.49109 0.0258,0.0647 0.21969,0.49106 0.0258,0.0647 0.21967,0.49107 0.0258,0.0647 0.20677,0.49107 0.0258,0.0647 0.20678,0.49107 0.0258,0.0647 0.19385,0.50401 0.0258,0.0647 0.19385,0.49107 0.0258,0.0647 0.19385,0.50399 0.0258,0.0647 0.19384,0.50403 0.0258,0.0647 0.19385,0.50401 0.0258,0.0647 0.18093,0.50399 0.0258,0.0647 0.168,0.50398 0.0258,0.0647 0.16801,0.504 0.0258,0.0647 0.16799,0.504 0.0258,0.0647 0.16799,0.51694 0.0129,0.0647 0.15506,0.504 0.0258,0.0647 0.15507,0.5169 0.0129,0.0647 0.15508,0.51692 0.0258,0.0647 0.15506,0.51692 0.0258,0.0647 0.14216,0.51692 0.0258,0.0647 0.14215,0.51691 0.0129,0.0647 0.12924,0.51693 0.0258,0.0774 0.14215,0.52983 0.0129,0.0647 0.12923,0.52984 0.0258,0.0647 0.11617,0.52984 0.0258,0.0647 0.12923,0.52985 0.0129,0.0776 0.11616,0.52984 0.0129,0.0647 0.11643,0.52985 0.0129,0.0647 0.10334,0.52983 0.0129,0.0647 0.10333,0.52984 0.0129,0.0647 0.10333,0.52984 0.0129,0.0647 0.0905,0.54275 0.0129,0.0647 0.0904,0.52985 0.0129,0.0776 0.0904,0.54277 0.0129,0.0776 0.0774,0.54277 0.0129,0.0776 0.0776,0.52984 v 0.0518 l 0.0389,0.2843 v 0.0258 l 0.0258,0.27139 v 0.0388 l 0.0388,0.27137 v 0.0258 l 0.0388,0.27138 v 0.0389 l 0.0389,0.27138 0.0129,0.0388 0.0388,0.27141 v 0.0389 l 0.0258,0.27137 0.0129,0.0258 0.0258,0.27137 0.0129,0.0389 0.0258,0.2714 v 0.0389 l 0.0258,0.27136 0.0129,0.0388 0.0258,0.27141 0.0129,0.0389 0.0258,0.27138 v 0.0388 l 0.0258,0.2714 v 0.0387 l 0.0258,0.27139 v 0.0389 l 0.0258,0.27137 v 0.0388 l 0.0258,0.2714 v 0.0389 l 0.0129,0.27137 v 0.0389 l 0.0129,0.28432 v 0.0389 l 0.0258,0.28431 v 0.0258 l 0.0129,0.2714 v 0.0389 l 0.0129,0.27137 v 0.0389 l 0.0129,0.27139 v 0.0388 l 0.0129,0.27138 v 0.0389 l 0.0129,0.28431 v 0.0388 l 0.0129,0.27137 v 0.0389 l 0.0129,0.27139 v 0.0258 l 0.0129,0.27138 v 180.40414 l -0.0129,0.29723 v 0.37477 l -0.0129,0.29724 v 0.0388 l -0.0129,0.28431 v 0.0258 l -0.0129,0.29723 v 0.0389 l -0.0129,0.28431 v 0.0258 l -0.0129,0.28431 v 0.0388 l -0.0129,0.2843 -0.0129,0.0389 -0.0129,0.2843 v 0.0388 l -0.0129,0.2843 v 0.0258 l -0.0129,0.29724 v 0.0388 l -0.0258,0.29723 v 0.0258 l -0.0258,0.29724 v 0.0389 l -0.0258,0.28432 v 0.0388 l -0.0129,0.2843 v 0.0388 l -0.0258,0.2843 v 0.0388 l -0.0258,0.2843 v 0.0389 l -0.0258,0.28432 v 0.0388 l -0.0258,0.28431 -0.0129,0.0258 -0.0258,0.29722 -0.0129,0.0388 -0.0258,0.28431 v 0.0389 l -0.0258,0.28431 -0.0129,0.0388 -0.0388,0.2843 v 0.0389 l -0.0389,0.28431 v 0.0258 l -0.0388,0.2843 v 0.0388 l -0.0388,0.2843 -0.0129,0.0389 -0.0388,0.29723 -0.0129,0.0389 -0.0388,0.28431 -0.0129,0.0389 -0.0387,0.28431 v 0.0389 l -0.0389,0.2843 v 0.0389 l -0.0389,0.28432 -0.0129,0.0388 -0.0388,0.2843 -0.0129,0.0389 -0.0517,0.2843 v 0.0258 l -0.0388,0.2843 v 0.0258 l -0.0518,0.28435 -0.0128,0.0388 -0.0389,0.2843 -0.0129,0.0388 -0.0388,0.2843 v 0.0258 l -0.0517,0.28431 v 0.0258 l -0.0518,0.2843 v 0.0258 l -0.0518,0.2843 v 0.0389 l -0.0517,0.27138 -0.0129,0.0388 -0.0517,0.2714 -0.0129,0.0388 -0.0518,0.2843 -0.0128,0.0388 -0.0647,0.28431 v 0.0258 l -0.0647,0.28431 v 0.0258 l -0.0518,0.27141 v 0.0389 l -0.0647,0.28429 v 0.0258 l -0.0518,0.2843 -0.0128,0.0258 -0.0647,0.27139 v 0.0258 l -0.0647,0.27139 v 0.0389 l -0.0647,0.27139 -0.0129,0.0388 -0.0647,0.27138 -0.0129,0.0388 -0.0647,0.27138 -0.0129,0.0258 -0.0647,0.2714 -0.0128,0.0258 -0.0647,0.27138 -0.0129,0.0389 -0.0776,0.27138 -0.0128,0.0389 -0.0647,0.27141 -0.0129,0.0388 -0.0774,0.27138 v 0.0389 l -0.0776,0.2843 -0.0129,0.0389 -0.0774,0.27136 v 0.0389 l -0.0774,0.2714 -0.0129,0.0388 -0.0775,0.27138 -0.0129,0.0389 -0.0774,0.28431 -0.0129,0.0258 -0.0774,0.27138 -0.0129,0.0258 -0.0774,0.27138 -0.0129,0.0388 -0.0905,0.27138 -0.0129,0.0389 -0.0776,0.27139 -0.0129,0.0258 -0.0774,0.27138 -0.0129,0.0388 -0.0774,0.27138 -0.0129,0.0258 -0.0904,0.27138 -0.0129,0.0388 -0.0904,0.27138 -0.0129,0.0388 -0.0905,0.27139 -0.0129,0.0388 -0.0904,0.27141 -0.0129,0.0389 -0.0904,0.27137 -0.0129,0.0258 -0.0905,0.27137 -0.0129,0.0389 -0.0904,0.27139 -0.0129,0.0389 -0.0904,0.27137 -0.0129,0.0258 -0.0904,0.27139 -0.0129,0.0388 -0.0905,0.2714 -0.0128,0.0387 -0.10334,0.25847 -0.0129,0.0388 -0.0904,0.25846 -0.0129,0.0388 -0.0904,0.25846 -0.0129,0.0388 -0.0904,0.27138 -0.0129,0.0388 -0.10334,0.27138 -0.0129,0.0388 -0.10334,0.25847 -0.0129,0.0388 -0.10333,0.25846 -0.0129,0.0388 -0.10334,0.25848 -0.0129,0.0389 -0.10334,0.25847 -0.0129,0.0388 -0.10333,0.25846 -0.0129,0.0388 -0.10334,0.25848 -0.0129,0.0258 -0.11616,0.25846 -0.0129,0.0388 -0.11633,0.2714 -0.0129,0.0389 -0.10334,0.25847 -0.0129,0.0388 -0.11632,0.25847 -0.0128,0.0389 -0.11616,0.25847 -0.0129,0.0388 -0.11631,0.25847 -0.0129,0.0258 -0.11616,0.25847 -0.0129,0.0388 -0.11616,0.25846 -0.0129,0.0258 -0.11616,0.25845 -0.0129,0.0258 -0.11644,0.25846 -0.0128,0.0258 -0.11643,0.25847 -0.0129,0.0258 -0.12923,0.25845 -0.0129,0.0258 -0.12924,0.24554 -0.0129,0.0388 -0.1163,0.25845 -0.0129,0.0258 -0.12923,0.24555 -0.0129,0.0388 -0.11616,0.25847 -0.0129,0.0258 -0.12923,0.25847 -0.0129,0.0387 -0.12925,0.25846 -0.0129,0.0258 -0.12925,0.24554 -0.0129,0.0258 -0.12922,0.25845 -0.0129,0.0389 -0.12924,0.25845 -0.0129,0.0389 -0.12923,0.25845 -0.0258,0.0389 -0.12922,0.24554 -0.0129,0.0258 -0.12923,0.25845 -0.0129,0.0388 -0.12924,0.25847 -0.0129,0.0388 -0.14213,0.24552 -0.0258,0.0258 -0.14217,0.24554 -0.0129,0.0258 -0.14214,0.24554 -0.0129,0.0258 -0.14216,0.24552 -0.0129,0.0258 -0.14217,0.24554 -0.0129,0.0258 -0.14216,0.24554 -0.0129,0.0388 -0.14215,0.24554 -0.0129,0.0258 -0.14214,0.24552 -0.0129,0.0389 -0.14214,0.24554 -0.0258,0.0258 -0.14216,0.24554 -0.0258,0.0258 -0.14217,0.24553 -0.0129,0.0258 -0.14217,0.24553 -0.0129,0.0389 -0.15509,0.24554 -0.0129,0.0258 -0.14216,0.23262 -0.0129,0.0389 -0.14217,0.23262 -0.0258,0.0258 -0.15508,0.24555 -0.0129,0.0389 -0.15507,0.23262 -0.0258,0.0258 -0.15507,0.23259 -0.0129,0.0258 -0.15508,0.24554 -0.0258,0.0388 -0.15507,0.23261 -0.0258,0.0258 -0.15507,0.23261 -0.0129,0.0258 -0.15509,0.24553 -0.0129,0.0258 -0.15509,0.23262 -0.0258,0.0258 -0.168,0.23262 -0.0129,0.0258 -0.15507,0.23262 -0.0129,0.0258 -0.168,0.23261 -0.0129,0.0258 -0.15508,0.2326 -0.0258,0.0258 -0.15506,0.2326 -0.0258,0.0258 -0.168,0.2326 -0.0258,0.0258 -0.15507,0.23261 -0.0129,0.0258 -0.168,0.23262 -0.0258,0.0389 -0.15506,0.23263 -0.0258,0.0258 -0.168,0.23262 -0.0258,0.0258 -0.168,0.2326 -0.0258,0.0258 -0.16799,0.23261 -0.0258,0.0258 -0.16801,0.2326 -0.0128,0.0258 -0.16799,0.2197 -0.0258,0.0258 -0.168,0.2197 -0.0129,0.0258 -0.18091,0.21969 -0.0258,0.0258 -0.16798,0.2197 -0.0129,0.0258 -0.168,0.23263 -0.0258,0.0258 -0.18091,0.23264 -0.0258,0.0258 -0.18091,0.21969 -0.0258,0.0258 -0.18093,0.21969 -0.0129,0.0258 -0.18094,0.21969 -0.0258,0.0258 -0.18091,0.21968 -0.0258,0.0258 -0.1809,0.21968 -0.0258,0.0258 -0.18091,0.2197 -0.0258,0.0258 -0.18095,0.2197 -0.0129,0.0258 -0.18092,0.21969 -0.0258,0.0258 -0.19385,0.21969 -0.0258,0.0258 -0.18091,0.2197 -0.0258,0.0258 -0.18092,0.21968 -0.0258,0.0258 -0.18093,0.21967 -0.0258,0.0258 -0.18093,0.2197 -0.0258,0.0258 -0.18093,0.20676 -0.0258,0.0258 -0.19385,0.21969 -0.0258,0.0258 -0.18091,0.21969 -0.0258,0.0258 -0.19385,0.21969 -0.0258,0.0258 -0.18092,0.21968 -0.0258,0.0258 -0.19385,0.20677 -0.0258,0.0258 -0.19384,0.20677 -0.0258,0.0258 -0.19385,0.20678 -0.0258,0.0258 -0.19383,0.20677 -0.0258,0.0258 -0.19384,0.20676 -0.0258,0.0258 -0.19384,0.20677 -0.0258,0.0258 -0.19383,0.20677 -0.0258,0.0258 -0.19384,0.20676 -0.0258,0.0258 -0.20677,0.20677 -0.0258,0.0258 -0.19385,0.20677 -0.0258,0.0258 -0.19385,0.19383 -0.0258,0.0258 -0.20677,0.20676 -0.0388,0.0258 -0.20676,0.20676 -0.0258,0.0258 -0.20678,0.19384 -0.0258,0.0258 -0.20677,0.20676 -0.0258,0.0258 -0.20677,0.19385 -0.0258,0.0258 -0.20678,0.19384 -0.0258,0.0258 -0.20677,0.19385 -0.0258,0.0258 -0.20676,0.19383 -0.0258,0.0258 -0.20678,0.19383 -0.0258,0.0258 -0.20676,0.19384 -0.0258,0.0258 -0.2197,0.19383 -0.0258,0.0129 -0.20677,0.19385 -0.0258,0.0258 -0.21968,0.19384 -0.0258,0.0258 -0.21969,0.19385 -0.0258,0.0129 -0.2197,0.19386 -0.0258,0.0258 -0.21969,0.18092 -0.0389,0.0258 -0.21969,0.18093 -0.0258,0.0258 -0.2197,0.19385 -0.0258,0.0258 -0.21969,0.19384 -0.0258,0.0258 -0.21968,0.19385 -0.0258,0.0258 -0.21969,0.18094 -0.0258,0.0258 -0.23262,0.18091 -0.0258,0.0129 -0.21969,0.18094 -0.0258,0.0258 -0.21969,0.18093 -0.0388,0.0258 -0.21969,0.18093 -0.0258,0.0258 -0.21969,0.1809 -0.0258,0.0258 -0.21968,0.1809 -0.0258,0.0258 -0.23262,0.18093 -0.0258,0.0258 -0.2197,0.16801 -0.0258,0.0258 -0.23261,0.18093 -0.0258,0.0258 -0.23259,0.18092 -0.0258,0.0258 -0.2326,0.18091 -0.0258,0.0258 -0.23259,0.18092 -0.0258,0.0129 -0.2326,0.168 -0.0258,0.0129 -0.2326,0.168 -0.0258,0.0129 -0.23261,0.168 -0.0388,0.0129 -0.23263,0.16799 -0.0258,0.0258 -0.23263,0.168 -0.0258,0.0258 -0.23262,0.168 -0.0258,0.0258 -0.23262,0.168 -0.0389,0.0258 -0.2326,0.168 -0.0258,0.0129 -0.24553,0.168 -0.0389,0.0129 -0.24552,0.16799 -0.0258,0.0258 -0.24555,0.168 -0.0258,0.0258 -0.24554,0.15509 -0.0258,0.0258 -0.24552,0.16799 -0.0258,0.0258 -0.23261,0.168 -0.0388,0.0258 -0.24554,0.15508 -0.0258,0.0129 -0.24552,0.15508 -0.0389,0.0128 -0.24552,0.15509 -0.0258,0.0258 -0.24555,0.15508 -0.0258,0.0258 -0.24553,0.1551 -0.0258,0.0129 -0.24553,0.15508 -0.0389,0.0129 -0.24553,0.15507 -0.0258,0.0258 -0.24553,0.15507 -0.0389,0.0129 -0.24554,0.15508 -0.0389,0.0258 -0.24553,0.15507 -0.0388,0.0258 -0.25847,0.15507 -0.0258,0.0258 -0.24552,0.14215 -0.0389,0.0129 -0.24553,0.14214 -0.0258,0.0258 -0.25845,0.15507 -0.0388,0.0258 -0.25846,0.14217 -0.0258,0.0258 -0.24553,0.14215 -0.0389,0.0128 -0.25846,0.14214 -0.0389,0.0129 -0.25847,0.14215 -0.0258,0.0129 -0.24554,0.14214 -0.0128,0.0129 -149.81669,83.48278 h -0.0129 l -0.23262,0.14214 -0.0388,0.0129 -0.24555,0.14216 -0.0389,0.0258 -0.24555,0.12924 -0.0389,0.0129 -0.24556,0.12923 -0.0258,0.0129 -0.24554,0.12924 -0.0389,0.0129 -0.24555,0.12922 -0.0388,0.0129 -0.24556,0.12922 -0.0388,0.0129 -0.24556,0.12923 -0.0258,0.0129 -0.24555,0.12923 -0.0258,0.0129 -0.24553,0.11632 -0.0258,0.0129 -0.25847,0.12924 -0.0258,0.0258 -0.24555,0.12924 -0.0258,0.0129 -0.24554,0.11616 -0.0258,0.0129 -0.24555,0.11644 -0.0258,0.0129 -0.24554,0.12924 -0.0258,0.0129 -0.25848,0.11631 -0.0258,0.0129 -0.24554,0.11616 -0.0258,0.0129 -0.25846,0.11616 -0.0258,0.0129 -0.24555,0.11643 -0.0258,0.0129 -0.24555,0.11643 -0.0388,0.0258 -0.25847,0.11617 -0.0258,0.0128 -0.25844,0.10333 -0.0258,0.0129 -0.25846,0.11643 -0.0258,0.0258 -0.25846,0.11644 -0.0388,0.0129 -0.24553,0.10333 -0.0258,0.0129 -0.25847,0.11617 -0.0258,0.0129 -0.25847,0.10333 -0.0258,0.0129 -0.25847,0.10333 -0.0258,0.0129 -0.25847,0.10334 -0.0388,0.0129 -0.25845,0.10333 -0.0389,0.0129 -0.25846,0.10333 -0.0389,0.0128 -0.24554,0.10334 -0.0258,0.0129 -0.25846,0.0904 -0.0258,0.0129 -0.25847,0.10333 -0.0388,0.0129 -0.25843,0.10334 -0.0389,0.0129 -0.25845,0.10333 -0.0388,0.0129 -0.25846,0.0904 -0.0389,0.0129 -0.25845,0.10334 -0.0389,0.0129 -0.25847,0.0904 -0.0258,0.0129 -0.25846,0.0904 -0.0388,0.0129 -0.25846,0.0904 -0.0388,0.0129 -0.25846,0.0905 -0.0388,0.0129 -0.25847,0.0904 -0.0258,0.0129 -0.25846,0.0904 -0.25846,0.0904 -0.0389,0.0129 -0.27137,0.0774 -0.0388,0.0129 -0.25845,0.0774 -0.0258,0.0129 -0.25845,0.0904 -0.0258,0.0129 -0.27138,0.0776 -0.0388,0.0129 -0.25846,0.0774 -0.0388,0.0129 -0.25844,0.0774 -0.0388,0.0129 -0.27138,0.0904 -0.0518,0.0129 -0.51693,0.15507 -0.0647,0.0258 -0.52983,0.15506 -0.0647,0.0129 -0.52985,0.15507 -0.0647,0.0129 -0.52986,0.14215 -0.0647,0.0258 -0.52986,0.14214 -0.0647,0.0129 -0.52984,0.14215 -0.0774,0.0129 -0.52984,0.12925 -0.0647,0.0129 -0.52986,0.12923 -0.0776,0.0129 -0.52983,0.12925 -0.0647,0.0129 -0.52985,0.11643 -0.0647,0.0129 -0.54278,0.11616 -0.0774,0.0129 -0.54276,0.11615 -0.0647,0.0128 -0.54276,0.10334 -0.0647,0.0129 -0.52985,0.0904 -0.0647,0.0129 -0.52985,0.10333 -0.0647,0.0129 -0.54277,0.0904 -0.0647,0.0129 -0.54277,0.0904 -0.0647,0.0129 -0.54277,0.0774 -0.0647,0.0129 -0.54278,0.0775 -0.0647,0.0128 -0.54277,0.0776 -0.0647,0.0129 -0.54277,0.0774 -0.0774,0.0129 -0.54277,0.0647 -0.0647,0.0129 -0.54277,0.0647 -0.0647,0.0129 -0.54277,0.0647 -0.54276,0.0518 h -0.0647 l -0.54277,0.0388 -0.0647,0.0128 -0.54276,0.0388 h -0.0647 l -0.54277,0.0388 h -0.0647 l -0.54279,0.0388 -0.0774,0.0129 -0.54277,0.0389 h -0.0647 l -0.54276,0.0258 h -0.0647 l -0.54276,0.0258 h -0.0774 l -0.54277,0.0129 h -0.0647 l -0.54277,0.0129 h -0.0647 L 247.04889,500 h -1.91262 l -0.54276,-0.0129 -0.54276,-0.0129 h -0.0776 l -0.54277,-0.0129 h -0.01 l -0.54279,-0.0258 -0.0647,-0.0129 -0.54277,-0.0258 h -0.0647 l -0.54275,-0.0258 -0.0647,-0.0129 -0.54276,-0.0258 h -0.0647 l -0.54277,-0.0389 -0.0647,-0.0129 -0.54277,-0.0518 -0.0774,-0.0129 -0.54277,-0.0517 -0.0776,-0.0129 -0.54277,-0.0518 -0.0647,-0.0129 -0.54276,-0.0518 h -0.0647 l -0.54276,-0.0517 -0.0647,-0.0129 -0.54276,-0.0647 h -0.0774 l -0.54278,-0.0647 -0.0775,-0.0129 -0.54277,-0.0774 -0.0647,-0.0129 -0.54277,-0.0774 -0.0647,-0.0129 -0.54277,-0.0774 -0.0647,-0.0129 -0.54277,-0.0775 -0.0647,-0.0129 -0.52984,-0.0904 h -0.0389 l -0.54276,-0.10333 -0.0698,-0.0129 -0.52986,-0.10334 -0.0647,-0.0129 -0.52984,-0.10334 -0.0647,-0.0129 -0.52985,-0.10333 -0.0776,-0.0129 -0.5376,-0.10334 -0.0647,-0.0129 -0.52983,-0.11617 -0.0776,-0.0258 -0.52984,-0.11631 -0.0647,-0.0129 -0.52984,-0.12924 -0.0724,-0.0258 -0.52983,-0.12923 -0.0647,-0.0258 -0.52985,-0.14214 -0.0647,-0.0129 -0.52983,-0.14215 -0.0647,-0.0258 -0.52984,-0.14218 -0.0647,-0.0258 -0.52984,-0.14216 -0.0647,-0.0258 -0.52984,-0.15509 -0.0774,-0.0258 -0.52984,-0.15507 -0.0647,-0.0258 -0.52984,-0.15508 -0.0647,-0.0258 -0.52983,-0.15507 -0.0647,-0.0129 -0.51433,-0.16801 -0.0517,-0.0129 -0.27137,-0.0904 h -0.0349 l -0.25846,-0.0774 -0.0387,-0.0129 -0.25845,-0.0904 -0.0387,-0.0129 -0.25845,-0.0904 -0.0388,-0.0129 -0.25846,-0.0904 -0.0388,-0.0129 -0.25846,-0.0905 -0.0388,-0.0129 -0.25846,-0.0904 -0.0258,-0.0129 -0.25846,-0.0904 -0.0258,-0.0129 -0.25846,-0.0904 -0.0258,-0.0129 -0.25845,-0.10333 -0.0389,-0.0129 -0.25847,-0.10334 -0.0389,-0.0129 -0.25846,-0.10333 -0.0258,-0.0129 -0.25844,-0.10333 -0.0387,-0.0129 -0.25846,-0.10334 -0.0258,-0.0129 -0.25846,-0.10333 -0.0388,-0.0129 -0.25845,-0.10333 -0.0258,-0.0129 -0.25845,-0.10334 -0.0258,-0.0129 -0.25846,-0.10333 -0.0388,-0.0129 -0.25848,-0.10333 -0.0388,-0.0129 -0.25846,-0.10334 -0.0389,-0.0129 -0.25847,-0.10333 -0.0389,-0.0129 -0.25847,-0.10333 -0.0258,-0.0129 -0.25847,-0.11633 -0.0387,-0.0129 -0.24555,-0.11643 -0.0258,-0.0129 -0.25847,-0.11643 -0.0258,-0.0129 -0.25845,-0.11616 -0.0258,-0.0129 -0.25844,-0.10333 -0.0388,-0.0129 -0.24553,-0.11617 -0.0388,-0.0129 -0.25847,-0.11617 -0.0387,-0.0129 -0.24552,-0.11616 -0.0258,-0.0258 -0.24554,-0.11631 -0.0258,-0.0129 -0.24553,-0.11617 -0.0258,-0.0129 -0.25846,-0.11643 -0.0258,-0.0258 -0.25844,-0.12924 -0.0258,-0.0258 -0.24554,-0.11644 -0.0387,-0.0129 -0.25848,-0.11642 -0.0258,-0.0258 -0.24555,-0.12923 -0.0389,-0.0129 -0.25848,-0.12923 -0.0258,-0.0129 -0.24554,-0.12923 -0.0389,-0.0129 -0.24554,-0.12923 -0.0258,-0.0129 -0.24554,-0.12923 -0.0389,-0.0258 -0.24555,-0.12924 -0.0258,-0.0129 -0.24555,-0.12923 -0.0258,-0.0129 -0.24554,-0.12923 -0.0388,-0.0258 -0.24552,-0.12923 -0.0258,-0.0129 -0.24555,-0.14214 -0.0387,-0.0258 -0.24554,-0.12922 -0.0389,-0.0129 -0.24553,-0.12923 -0.0389,-0.0129 -0.24554,-0.12922 -0.0389,-0.0129 -0.24552,-0.14215 -0.0388,-0.0129 -0.23262,-0.14217 -0.0388,-0.0129 -0.23261,-0.14217 -0.0129,-0.0129 -135.433358,-79.05018 -0.01291,-0.0129 -0.284303,-0.16799 -0.02581,-0.0129 -0.284303,-0.168 -0.03883,-0.0129 -0.297234,-0.16798 -0.03883,-0.0129 -0.284304,-0.18094 -0.02581,-0.0129 -0.284304,-0.18092 -0.02581,-0.0258 -0.284319,-0.18092 -0.02583,-0.0258 -0.284303,-0.18091 -0.03881,-0.0129 -0.284313,-0.168 -0.03881,-0.0258 -0.284303,-0.18091 -0.02583,-0.0258 -0.284314,-0.18093 h 0.06583 l -0.284302,-0.18091 -0.03881,-0.0258 -0.284313,-0.18093 -0.02583,-0.0258 -0.284302,-0.18092 -0.03607,-0.0258 -0.284314,-0.19385 -0.03881,-0.0258 -0.284303,-0.19384 -0.02583,-0.0258 -0.284301,-0.18093 -0.02583,-0.0258 -0.284302,-0.19385 -0.02583,-0.0258 -0.284328,-0.19386 -0.02583,-0.0258 -0.271396,-0.19384 -0.03881,-0.0258 -0.277837,-0.19384 -0.02583,-0.0258 -0.271373,-0.19382 -0.03238,-0.0258 -0.271375,-0.19385 -0.03489,-0.0258 -0.271385,-0.19382 -0.02583,-0.0129 -0.271385,-0.19386 -0.02583,-0.0258 -0.267505,-0.19386 -0.02583,-0.0258 -0.266207,-0.19386 -0.03881,-0.0129 -0.271398,-0.19386 -0.02583,-0.0258 -0.271385,-0.20676 -0.02583,-0.0258 -0.271386,-0.19386 -0.03357,-0.0258 -0.271384,-0.20676 -0.03357,-0.0258 -0.258456,-0.20677 -0.02583,-0.0258 -0.258457,-0.20676 -0.02583,-0.0129 -0.258444,-0.20676 -0.02583,-0.0258 -0.258468,-0.20677 -0.02583,-0.0258 -0.258468,-0.20677 -0.02583,-0.0258 -0.258468,-0.20675 -0.02583,-0.0258 -0.258457,-0.20678 -0.02583,-0.0258 -0.258456,-0.20677 -0.02583,-0.0258 -0.258456,-0.21969 -0.02583,-0.0129 -0.258456,-0.20678 -0.02583,-0.0258 -0.250705,-0.20677 -0.02583,-0.0258 -0.258457,-0.21967 -0.02583,-0.0258 -0.258457,-0.20677 -0.02583,-0.0258 -0.258456,-0.21967 -0.02583,-0.0129 -0.253291,-0.20677 -0.02583,-0.0258 -0.245541,-0.20677 -0.02583,-0.0258 -0.245551,-0.21969 -0.02583,-0.0258 -0.245539,-0.2197 -0.02583,-0.0258 -0.245528,-0.21969 -0.02583,-0.0258 -0.245553,-0.2197 -0.02583,-0.0258 -0.245541,-0.21971 -0.02583,-0.0258 -0.245528,-0.23263 -0.02583,-0.0129 -0.245551,-0.21969 -0.03881,-0.0258 -0.239075,-0.2326 -0.02583,-0.0258 -0.245539,-0.2197 -0.02583,-0.0258 -0.240373,-0.23262 -0.02583,-0.0258 -0.23261,-0.23262 -0.02583,-0.0258 -0.232623,-0.23263 -0.02583,-0.0258 -0.245541,-0.23261 -0.02583,-0.0258 -0.245539,-0.23261 -0.02583,-0.0129 -0.232612,-0.23262 -0.02583,-0.0258 -0.23261,-0.23262 -0.02583,-0.0258 -0.232614,-0.23262 -0.02585,-0.0258 -0.232612,-0.23261 -0.02585,-0.0258 -0.232614,-0.23261 -0.02585,-0.0258 -0.232615,-0.23261 -0.02584,-0.0258 -0.219692,-0.2326 -0.02585,-0.0258 -0.232616,-0.23262 -0.02584,-0.0258 -0.232615,-0.24554 -0.02585,-0.0258 -0.219691,-0.24555 -0.02584,-0.0258 -0.219691,-0.24556 -0.02585,-0.0258 -0.232615,-0.24554 -0.02584,-0.0258 -0.21969,-0.24555 -0.02585,-0.0258 -0.219691,-0.24556 -0.02585,-0.0258 -0.219692,-0.24553 -0.02585,-0.0258 -0.219692,-0.24555 -0.02585,-0.0258 -0.219691,-0.24556 -0.01293,-0.0258 -0.206769,-0.24554 -0.02585,-0.0258 -0.219692,-0.24553 -0.02584,-0.0258 -0.232614,-0.25848 -0.02585,-0.0258 -0.219691,-0.24555 -0.02584,-0.0258 -0.219691,-0.25846 -0.02585,-0.0258 -0.206769,-0.24553 -0.01293,-0.0258 -0.206768,-0.24556 -0.02585,-0.0258 -0.20677,-0.25846 -0.02584,-0.0258 -0.219692,-0.25844 -0.02585,-0.0258 -0.206769,-0.24551 -0.02585,-0.0258 -0.219691,-0.24554 -0.02584,-0.0258 -0.20677,-0.24554 -0.02585,-0.0258 -0.206767,-0.25847 -0.02585,-0.0258 -0.206769,-0.25846 -0.02585,-0.0258 -0.206768,-0.25846 -0.02585,-0.0258 -0.206769,-0.25846 -0.02584,-0.0258 -0.206769,-0.25846 -0.01293,-0.0258 -0.193846,-0.25848 -0.02585,-0.0258 -0.193846,-0.25847 -0.01293,-0.0258 -0.193846,-0.25846 -0.02585,-0.0258 -0.193846,-0.27138 -0.02585,-0.0258 -0.193846,-0.25847 -0.02585,-0.0258 -0.193846,-0.25846 -0.01293,-0.0258 -0.193845,-0.27138 -0.01293,-0.0258 -0.193847,-0.27136 -0.01293,-0.0258 -0.193847,-0.25846 -0.01293,-0.0258 -0.193844,-0.25846 -0.02585,-0.0258 -0.193846,-0.27138 -0.02585,-0.0258 -0.193845,-0.27137 -0.02584,-0.0388 -0.180925,-0.27138 -0.02585,-0.0258 -0.180922,-0.27138 -0.02584,-0.0258 -0.180921,-0.27139 -0.02585,-0.0258 -0.180921,-0.27138 -0.01293,-0.0258 -0.180923,-0.2714 -0.02585,-0.0388 -0.180922,-0.27139 -0.02585,-0.0258 -0.180923,-0.2714 -0.02585,-0.0258 -0.180922,-0.27138 -0.02584,-0.0258 -0.180924,-0.27138 -0.02585,-0.0258 -0.167998,-0.2714 -0.01293,-0.0258 -0.167999,-0.27138 -0.02585,-0.0388 -0.180922,-0.27137 -0.02584,-0.0389 -0.180923,-0.27137 -0.01293,-0.0258 -0.180924,-0.2843 -0.01293,-0.0389 -0.168,-0.27137 -0.02584,-0.0258 -0.168002,-0.27138 -0.02584,-0.0258 -0.167999,-0.2843 -0.02585,-0.0388 -0.167999,-0.27138 -0.01293,-0.0258 -0.167999,-0.2843 -0.01293,-0.0258 -0.167999,-0.2714 -0.02584,-0.0388 -0.168002,-0.2843 -0.02584,-0.0389 -0.168,-0.2843 -0.02584,-0.0389 -0.155076,-0.28432 -0.02585,-0.0258 -0.168,-0.28431 -0.01293,-0.0258 -0.155076,-0.2843 -0.01293,-0.0258 -0.155077,-0.28431 -0.01293,-0.0388 -0.155076,-0.2843 -0.02585,-0.0388 -0.155076,-0.2843 -0.01293,-0.0388 -0.155076,-0.29723 -0.01293,-0.0258 -0.155076,-0.28431 -0.01293,-0.0388 -0.155076,-0.28431 -0.01293,-0.0389 -0.155076,-0.28429 -0.01293,-0.0389 -0.142154,-0.29723 -0.01293,-0.0258 -0.155076,-0.29723 -0.01293,-0.0389 -0.155077,-0.29723 -0.02585,-0.0258 -0.142151,-0.29724 -0.01293,-0.0258 -0.142152,-0.2843 -0.01293,-0.0388 -0.142152,-0.29723 v 0.0129 l -0.142153,-0.29723 -0.02585,-0.0389 -0.142153,-0.29722 -0.01293,-0.0389 -0.142155,-0.28432 -0.01293,-0.0389 -0.142152,-0.29723 -0.01293,-0.0258 -0.142154,-0.29724 -0.01293,-0.0258 -0.12923,-0.29723 -0.01293,-0.0258 -0.142152,-0.29723 -0.01293,-0.0258 -0.142152,-0.29723 -0.01293,-0.0258 -0.142153,-0.29724 -0.01293,-0.0388 -0.129231,-0.29722 -0.01293,-0.0258 -0.142152,-0.29724 -0.01293,-0.0388 -0.142154,-0.29722 -0.01293,-0.0258 -0.129229,-0.29721 -0.01293,-0.0258 -0.12923,-0.29723 -0.01293,-0.0389 -0.129231,-0.29723 -0.01293,-0.0258 -0.116299,-0.29722 -0.01293,-0.0258 -0.129231,-0.29723 -0.01293,-0.0388 -0.1163,-0.31016 -0.01293,-0.0258 -0.129232,-0.29724 -0.01293,-0.0388 -0.116299,-0.2843 -0.01293,-0.0388 -0.129232,-0.31014 -0.01293,-0.0258 -0.1163,-0.31015 -0.01293,-0.0388 -0.116312,-0.31017 -0.01293,-0.0258 -0.116301,-0.31016 -0.01293,-0.0388 -0.116299,-0.31015 -0.01293,-0.0258 -0.1163,-0.31016 -0.01293,-0.0258 -0.10339,-0.31017 -0.01293,-0.0388 -0.116299,-0.31015 -0.01293,-0.0258 -0.10339,-0.31016 -0.01293,-0.0389 -0.10339,-0.31014 -0.01293,-0.0389 -0.1163,-0.31016 -0.01293,-0.0388 -0.10339,-0.31015 -0.01293,-0.0258 -0.103368,-0.31014 -0.01293,-0.0258 -0.10339,-0.31017 -0.01293,-0.0388 -0.103401,-0.31015 -0.01293,-0.0389 -0.103389,-0.31013 -0.01293,-0.0388 -0.10339,-0.31015 -0.01293,-0.0388 -0.10339,-0.31017 -0.01167,-0.0374 -0.09047,-0.31014 -0.01293,-0.0258 -0.10339,-0.32308 -0.01293,-0.0389 -0.09047,-0.32308 -0.01293,-0.0389 -0.09047,-0.31016 -0.01293,-0.0388 -0.09047,-0.31015 -0.01293,-0.0389 -0.09047,-0.32307 -0.01293,-0.0389 -0.09047,-0.32307 -0.01293,-0.0258 -0.09047,-0.32309 -0.01293,-0.0129 -0.09047,-0.32307 -0.01293,-0.0258 -0.07753,-0.31013 -0.01293,-0.0258 -0.07753,-0.31015 v -0.0258 l -0.09047,-0.32308 v -0.0388 l -0.07753,-0.31017 -0.01293,-0.0388 -0.07753,-0.31015 -0.01293,-0.0389 -0.07753,-0.32307 h 0.01293 l -0.07753,-0.32308 -0.01293,-0.0258 -0.07753,-0.32308 -0.01293,-0.0258 -0.07753,-0.32306 -0.01293,-0.0258 -0.07753,-0.32307 0.01293,-0.0129 -0.07753,-0.3231 -0.01293,-0.0388 -0.07753,-0.32308 -0.01293,-0.0388 -0.06461,-0.32308 -0.01293,-0.0389 -0.07753,-0.32308 -0.01293,-0.0258 -0.0646,-0.32307 -0.01293,-0.0388 -0.0646,-0.32308 -0.01293,-0.0388 -0.0646,-0.32309 -0.0646,-0.32306 v -0.0388 l -0.06462,-0.33598 v -0.0389 l -0.0646,-0.32308 -0.01293,-0.0388 -0.07753,-0.31012 v -0.0388 l -0.0646,-0.34893 -0.01293,-0.0388 -0.0646,-0.33599 -0.01293,-0.0389 -0.05169,-0.32308 -0.01293,-0.0389 -0.05169,-0.32306 v -0.0388 l -0.05169,-0.32306 v -0.0392 l -0.0517,-0.32305 -0.01293,-0.0388 -0.05169,-0.32307 v 0.0129 l -0.05169,-0.32308 v -0.0258 l -0.05169,-0.32306 v -0.0388 l -0.05169,-0.32307 v -0.0388 l -0.05169,-0.32307 v -0.0258 l -0.03877,-0.336 v -0.0388 l -0.03877,-0.32307 v -0.0258 l -0.05169,-0.33601 -0.01293,-0.0388 -0.03877,-0.32307 v -0.0388 l -0.03877,-0.33601 -0.01293,-0.0388 -0.03877,-0.33601 v -0.0388 l -0.03877,-0.33601 -0.01293,-0.0388 -0.03877,-0.336 v -0.0389 l -0.03877,-0.33601 -0.01293,-0.0258 -0.03877,-0.33599 -0.02585,-0.336 v -0.0388 l -0.03877,-0.336 -0.01293,-0.0388 -0.03877,-0.336 v -0.0388 l -0.02585,-0.33601 -0.01293,-0.0388 -0.02584,-0.336 v -0.0389 l -0.02585,-0.33599 v -0.0389 l -0.02585,-0.33598 -0.02585,-0.336 v -0.0388 l -0.02585,-0.336 v -0.0388 l -0.02585,-0.33599 v -0.41742 l -0.01293,-0.336 v -0.0387 l -0.01293,-0.33599 v -0.0389 l -0.01293,-0.33599 -0.01293,-0.0388 -0.01293,-0.33599 v -0.36184 l -0.01293,-0.33601 v -0.0388 l -0.01121,-0.33049 V 171.33678 l 0.01293,-0.32307 v -0.41353 l 0.01293,-0.33602 v -1.1889 l 0.01293,-0.336 v -0.0258 l 0.01293,-0.33601 v -0.0388 l 0.01293,-0.33602 v -0.0388 l 0.01293,-0.33599 v -0.0258 l 0.01293,-0.33599 v -0.0389 l 0.01293,-0.336 v -0.0387 l 0.02584,-0.34891 v -0.0388 l 0.02585,-0.336 v -0.0258 l 0.01293,-0.33601 v -0.0387 l 0.02584,-0.33599 v -0.0389 l 0.01293,-0.33598 v -0.0388 l 0.01293,-0.336 v -0.0389 l 0.02585,-0.336 v -0.0388 l 0.02585,-0.336 v -0.0388 l 0.03878,-0.336 v -0.0388 l 0.02585,-0.33601 0.01293,-0.0258 0.02585,-0.33601 v -0.0258 l 0.03877,-0.33602 v -0.0258 l 0.03877,-0.336 0.01293,-0.0388 0.03877,-0.33601 v -0.0389 l 0.03878,-0.33602 v -0.0258 l 0.03877,-0.33603 v -0.0258 l 0.03876,-0.33601 0.01293,-0.0387 0.03877,-0.336 v -0.0389 l 0.03876,-0.32309 v -0.0387 l 0.03877,-0.336 v -0.0389 l 0.03878,-0.33601 0.01293,-0.0387 0.03878,-0.32307 v -0.0388 l 0.05169,-0.336 v -0.0387 l 0.03877,-0.33599 0.01293,-0.0387 0.03877,-0.32308 0.01293,-0.0389 0.05169,-0.33599 0.01293,-0.0258 0.05169,-0.336 v -0.0258 l 0.05169,-0.33602 v -0.0258 l 0.05169,-0.32308 0.01293,-0.0388 0.05169,-0.3231 v -0.0388 l 0.09047,-0.33601 0.01293,-0.0388 0.05169,-0.32308 v -0.0389 l 0.0646,-0.3231 v -0.0258 l 0.06461,-0.32306 v -0.0258 l 0.0646,-0.336 0.01293,-0.0258 0.06461,-0.32309 0.01293,-0.0258 0.06461,-0.3231 0.01293,-0.0388 0.0646,-0.32307 0.01293,-0.0389 0.06461,-0.32308 v -0.0388 l 0.0646,-0.32311 v -0.0258 l 0.06461,-0.32308 0.01293,-0.0258 0.06461,-0.32307 0.01293,-0.0258 0.07753,-0.32307 v -0.0388 l 0.07753,-0.32308 0.01293,-0.0388 0.06461,-0.32307 0.01293,-0.0388 0.07753,-0.32307 v -0.0389 l 0.07753,-0.32306 0.01293,-0.0388 0.07753,-0.32306 v -0.0388 l 0.07753,-0.32306 0.01293,-0.0258 0.07753,-0.32307 v -0.0258 l 0.07753,-0.32307 0.01293,-0.0388 0.09047,-0.32307 v -0.0258 l 0.09047,-0.32307 v -0.0258 l 0.09047,-0.32307 0.01293,-0.0389 0.09047,-0.32307 v -0.0389 l 0.09047,-0.3231 0.01293,-0.0387 0.09047,-0.31016 0.01293,-0.0258 0.09047,-0.32307 0.01293,-0.0322 0.09047,-0.32307 0.01293,-0.0388 0.09047,-0.31531 0.01293,-0.0258 0.10339,-0.32308 0.01293,-0.0258 0.09047,-0.31016 0.01293,-0.0258 0.09047,-0.31404 0.01293,-0.0258 0.09047,-0.32048 0.01293,-0.0388 0.10339,-0.31532 0.01293,-0.0389 0.10339,-0.31016 v -0.0258 l 0.10339,-0.31015 v -0.0387 l 0.103401,-0.31015 0.01293,-0.0258 0.10339,-0.31015 0.01293,-0.0389 0.10339,-0.31016 0.01293,-0.0389 0.103379,-0.31014 0.01293,-0.0388 0.103401,-0.31016 0.01293,-0.0258 0.116299,-0.31016 0.01293,-0.0258 0.10339,-0.31014 0.01293,-0.0322 0.10339,-0.31016 0.01293,-0.0258 0.116299,-0.31014 0.01293,-0.0258 0.1163,-0.31017 v -0.0258 l 0.116299,-0.31016 0.01293,-0.0258 0.116298,-0.31012 0.01293,-0.0388 0.1163,-0.31015 0.01293,-0.0258 0.116312,-0.31015 0.01293,-0.0388 0.12923,-0.29724 0.01293,-0.0258 0.129231,-0.31015 0.01293,-0.0258 0.129232,-0.31014 0.01293,-0.0389 0.12923,-0.31015 0.01293,-0.0387 0.129231,-0.31017 0.01293,-0.0387 0.129231,-0.31016 0.01293,-0.0388 0.12923,-0.31014 0.01293,-0.0388 0.129231,-0.31016 0.01293,-0.0322 0.129232,-0.29723 0.01293,-0.0388 0.12923,-0.29722 0.01293,-0.0389 0.129231,-0.31015 0.01293,-0.0258 0.142153,-0.31013 0.01293,-0.0258 0.142152,-0.29723 0.01293,-0.0258 0.129231,-0.29724 0.01293,-0.0388 0.142152,-0.29723 0.01293,-0.0258 0.142153,-0.29724 0.01293,-0.0258 0.142153,-0.29723 0.01293,-0.0258 0.142156,-0.29721 0.01293,-0.0387 0.142153,-0.29724 0.01293,-0.0258 0.142152,-0.29723 0.01293,-0.0388 0.142153,-0.29724 0.01293,-0.0258 0.142151,-0.29723 0.01293,-0.0258 0.142153,-0.29724 0.01293,-0.0258 0.142153,-0.29724 0.01293,-0.0258 0.155077,-0.2843 0.01293,-0.0258 0.155076,-0.29724 0.02585,-0.0389 0.155077,-0.29724 0.01293,-0.0258 0.155077,-0.29721 0.01293,-0.0389 0.155076,-0.2843 0.01293,-0.0258 0.155077,-0.28431 0.01293,-0.0258 0.155075,-0.28433 0.01293,-0.0388 0.155076,-0.2843 0.02586,-0.0258 0.155077,-0.2843 0.01293,-0.0387 0.155076,-0.2843 0.02585,-0.0258 0.155075,-0.2843 0.01293,-0.0258 0.155076,-0.28431 0.02584,-0.0388 0.168001,-0.2843 0.01293,-0.0258 0.155076,-0.28434 0.01293,-0.0258 0.167999,-0.28429 0.01293,-0.0258 0.167999,-0.2843 0.01293,-0.0258 0.168001,-0.2843 0.02585,-0.0258 0.167999,-0.28431 0.01293,-0.0258 0.168001,-0.2843 0.02585,-0.0258 0.168,-0.2843 0.01293,-0.0258 0.168001,-0.2843 0.02584,-0.0258 0.168,-0.28432 0.01293,-0.0258 0.180924,-0.28432 0.02585,-0.0388 0.180923,-0.2843 0.01293,-0.0258 0.168,-0.27139 0.02585,-0.0258 0.180922,-0.27138 0.02585,-0.0258 0.168,-0.28431 0.01293,-0.0258 0.180922,-0.27138 0.01293,-0.0258 0.180922,-0.27139 0.02585,-0.0258 0.180924,-0.28432 0.02585,-0.0258 0.180922,-0.27139 0.01293,-0.0388 0.180923,-0.27138 0.01293,-0.0258 0.180924,-0.27137 0.01293,-0.0258 0.193846,-0.27137 0.02584,-0.0258 0.180922,-0.27137 0.02584,-0.0258 0.193847,-0.27137 0.01293,-0.0258 0.193845,-0.27138 0.01293,-0.0258 0.193844,-0.27138 0.01293,-0.0258 0.193845,-0.2714 0.02584,-0.0258 0.193846,-0.27138 0.01293,-0.0258 0.193847,-0.27138 0.02584,-0.0258 0.193846,-0.25846 0.01293,-0.0258 0.193845,-0.27138 0.02585,-0.0258 0.193843,-0.25843 0.02586,-0.0258 0.193844,-0.25845 0.02584,-0.0258 0.193845,-0.25845 0.02584,-0.0258 0.193844,-0.25846 0.01293,-0.0258 0.193846,-0.25846 0.02584,-0.0258 0.206769,-0.25847 0.02585,-0.0258 0.206768,-0.25847 0.02585,-0.0258 0.206769,-0.25846 0.02585,-0.0258 0.206768,-0.25845 0.02584,-0.0258 0.206769,-0.25846 0.02584,-0.0388 0.206768,-0.25845 0.01293,-0.0258 0.206769,-0.25846 0.02585,-0.0258 0.20677,-0.25847 0.02584,-0.0258 0.206768,-0.24554 0.02585,-0.0258 0.20677,-0.25844 0.02584,-0.0258 0.206769,-0.25846 0.02585,-0.0258 0.219691,-0.24552 0.02584,-0.0258 0.206769,-0.25846 0.02585,-0.0258 0.20677,-0.24556 0.02584,-0.0258 0.206769,-0.25847 0.02585,-0.0258 0.219691,-0.25847 0.01293,-0.0258 0.219691,-0.24553 0.02585,-0.0258 0.219691,-0.24556 0.02585,-0.0258 0.219691,-0.24554 0.02585,-0.0258 0.219692,-0.24554 0.01293,-0.0258 0.219693,-0.24556 0.02584,-0.0258 0.219691,-0.24555 0.02584,-0.0258 0.219691,-0.24553 0.01293,-0.0258 0.219691,-0.24556 0.02584,-0.0258 0.232615,-0.24555 0.01293,-0.0258 0.232615,-0.24555 0.02585,-0.0258 0.245536,-0.23262 0.02585,-0.0258 0.232614,-0.24553 0.02584,-0.0258 0.232615,-0.24552 0.02584,-0.0258 0.232614,-0.23261 0.02585,-0.0258 0.232623,-0.23261 0.02583,-0.0258 0.23261,-0.23261 0.02583,-0.0258 0.24554,-0.23263 0.02583,-0.0258 0.232623,-0.23261 0.02583,-0.0258 0.232611,-0.23262 0.02583,-0.0258 0.23261,-0.2326 0.02583,-0.0258 0.232622,-0.23261 0.02583,-0.0258 0.232623,-0.2326 0.02583,-0.0258 0.232611,-0.2326 0.02583,-0.0258 0.232623,-0.23262 0.02583,-0.0258 0.245527,-0.2197 0.02583,-0.0258 0.245539,-0.21968 0.02583,-0.0258 0.245539,-0.23261 0.02583,-0.0258 0.245527,-0.23262 0.02583,-0.0129 0.245527,-0.2197 0.02583,-0.0129 0.245539,-0.2197 0.02583,-0.0258 0.245551,-0.21969 0.02583,-0.0258 0.245528,-0.2197 0.02583,-0.0258 0.245541,-0.21968 0.02583,-0.0129 0.258468,-0.21969 0.02583,-0.0258 0.258468,-0.21971 0.02583,-0.0258 0.258457,-0.21971 0.02583,-0.0258 0.258444,-0.20676 0.02583,-0.0258 0.258457,-0.20677 0.02583,-0.0258 0.245539,-0.20675 0.02583,-0.0258 0.258468,-0.20677 0.02583,-0.0258 0.258468,-0.20677 0.02583,-0.0129 0.258457,-0.20677 0.02583,-0.0258 0.258456,-0.206784 0.02583,-0.02578 0.258457,-0.206769 0.02583,-0.02578 0.271374,-0.206768 0.02583,-0.02578 0.258457,-0.206758 0.02583,-0.02578 0.271385,-0.206769 0.02583,-0.02578 0.271384,-0.206769 0.02583,-0.02578 0.258457,-0.206779 0.02583,-0.01278 0.271372,-0.20678 0.02583,-0.02578 0.258468,-0.20678 0.02583,-0.02578 0.271397,-0.193846 0.02583,-0.02578 0.271385,-0.206758 0.02583,-0.02578 0.271384,-0.193846 0.02583,-0.01289 0.271386,-0.193858 0.03881,-0.02578 0.271374,-0.193846 0.02583,-0.01289 0.271374,-0.193858 0.02583,-0.02578 0.271373,-0.20678 0.02583,-0.01278 0.284302,-0.193846 0.02583,-0.02578 0.271385,-0.193858 0.03881,-0.01289 0.271396,-0.193835 0.02583,-0.01289 0.271398,-0.193846 0.02583,-0.01289 0.284303,-0.193847 0.02583,-0.02578 0.271384,-0.193846 0.02583,-0.01289 0.284314,-0.180935 0.02583,-0.01289 0.271385,-0.193847 0.03881,-0.02578 0.284313,-0.180924 0.02583,-0.02578 0.284314,-0.193846 0.02583,-0.02578 0.284302,-0.180913 0.03881,-0.01278 0.284314,-0.180935 0.02583,-0.02578 0.284325,-0.180924 0.02583,-0.01289 0.284302,-0.180924 0.02583,-0.01289 0.284304,-0.180924 0.02581,-0.01289 0.284304,-0.180924 0.03883,-0.01289 0.284304,-0.167991 h 0.01291 l 129.889384,-80.122795 0.0128,-0.01293 0.27138,-0.167998 0.0258,-0.01293 0.2843,-0.180922 0.0389,-0.02585 0.28432,-0.167999 0.0387,-0.02585 0.28432,-0.168001 0.0387,-0.02584 0.28431,-0.168001 0.0389,-0.01293 0.29723,-0.168 0.0258,-0.02585 0.2843,-0.167999 0.0388,-0.01293 0.2843,-0.167999 0.0258,-0.01293 0.29724,-0.155076 0.0258,-0.02584 0.29721,-0.155078 0.0258,-0.02584 0.28431,-0.155076 0.0388,-0.01293 0.29723,-0.155078 0.0258,-0.02584 0.28431,-0.155076 0.0388,-0.02584 0.28432,-0.155077 0.0389,-0.02585 0.2843,-0.155076 0.0258,-0.02584 0.29722,-0.1550776 0.0258,-0.012933 0.2843,-0.155076 0.0388,-0.012934 0.28431,-0.1550771 0.0389,-0.012933 0.29724,-0.155076 0.0388,-0.012933 0.29724,-0.155076 0.0258,-0.012933 0.29724,-0.1421537 0.0388,-0.012933 0.29723,-0.1421537 0.0387,-0.012933 0.2843,-0.1421514 0.0389,-0.012933 0.29723,-0.1421514 0.0258,-0.012934 0.29723,-0.1421547 0.0389,-0.012933 0.29723,-0.1421536 0.0387,-0.025845 0.29723,-0.1421537 0.0388,-0.012933 0.29722,-0.1421548 0.0387,-0.012933 0.29723,-0.1292313 0.0389,-0.012933 0.29723,-0.1292291 0.0258,-0.025845 0.29722,-0.1292301 0.0258,-0.012933 0.29723,-0.1292302 0.0389,-0.025845 0.29723,-0.1292301 0.0389,-0.012933 0.29724,-0.1292302 0.0387,-0.012933 0.29724,-0.1292302 0.0387,-0.012933 0.29722,-0.1292302 0.0388,-0.012933 0.29723,-0.1292302 0.0388,-0.012933 0.29724,-0.1162989 0.0389,-0.012933 0.29724,-0.129229 0.0388,-0.012933 0.31015,-0.1292302 0.0389,-0.012933 0.31017,-0.1292313 0.0389,-0.025845 0.29723,-0.1162989 0.0258,-0.012933 0.31015,-0.1162989 0.0389,-0.012933 0.29723,-0.1162989 0.0258,-0.012933 0.31014,-0.1163 0.0389,-0.012933 0.31016,-0.103401 0.0388,-0.012933 0.31014,-0.1162989 0.0387,-0.012933 0.31014,-0.1163 0.0388,-0.012933 0.31016,-0.1033899 0.0387,-0.012933 0.31016,-0.1033899 0.0388,-0.012933 0.29724,-0.103401 0.0387,-0.012933 0.31016,-0.1033899 0.0387,-0.012933 0.29723,-0.10339 0.0387,-0.012933 0.31016,-0.103401 0.0258,-0.012933 0.31015,-0.1033899 0.0387,-0.012933 0.31016,-0.1033899 0.0388,-0.012933 0.31012,-0.1033899 0.0387,-0.012933 0.31015,-0.090467 0.0258,-0.012933 0.31016,-0.090467 0.0389,-0.012933 0.31016,-0.090468 h 0.0389 l 0.31013,-0.090467 0.0389,-0.012933 0.31016,-0.090468 0.0258,-0.012933 0.31017,-0.090468 0.0258,-0.012933 0.31015,-0.090468 0.0387,-0.012933 0.31016,-0.090468 0.0388,-0.012933 0.31017,-0.090468 0.0388,-0.012933 0.31014,-0.077534 0.0389,-0.012933 0.31016,-0.077534 0.0258,-0.012933 0.31016,-0.090468 0.0309,-0.012933 0.32308,-0.077534 h 0.0258 l 0.31016,-0.090468 h 0.0389 l 0.31917,-0.077534 0.0389,-0.012933 0.32308,-0.077534 0.0388,-0.012933 0.31013,-0.077534 h 0.0388 l 0.32309,-0.077534 h 0.0388 l 0.31016,-0.077534 0.0388,-0.012933 0.31016,-0.064612 0.0388,-0.012933 0.31014,-0.077534 0.0388,-0.012934 0.31016,-0.064601 h 0.0387 l 0.31016,-0.064601 0.0389,-0.012933 0.31015,-0.064601 h 0.0258 l 0.31016,-0.064601 0.0389,-0.012933 0.32308,-0.064612 h 0.0258 l 0.32308,-0.064601 0.0258,-0.012933 0.32308,-0.064612 0.0388,-0.012934 0.32307,-0.064601 0.0388,-0.012933 0.32305,-0.051689 h 0.0389 l 0.31015,-0.051689 0.0389,-0.012933 0.32307,-0.064601 0.0388,-0.012933 0.32308,-0.051689 h 0.0388 l 0.31013,-0.051689 0.0388,-0.012933 0.32308,-0.051689 0.0389,-0.012933 0.31015,-0.051689 h 0.0258 l 0.31017,-0.051689 h 0.0388 l 0.32308,-0.051689 0.0388,-0.012933 0.32308,-0.051689 h 0.0388 l 0.3231,-0.0516894 h 0.0388 l 0.32309,-0.0516894 h 0.0388 l 0.32308,-0.038767 h 0.0389 l 0.31016,-0.0387782 h 0.0389 l 0.32306,-0.0387671 0.0387,-0.0129335 0.32309,-0.0387671 0.0258,-0.0129335 0.32308,-0.0258447 h 0.0389 l 0.31015,-0.0387782 h 0.0388 l 0.31017,-0.0387671 h 0.0387 l 0.32307,-0.0387671 h 0.0388 l 0.32307,-0.0387782 h 0.0389 l 0.31015,-0.0258447 h 0.0389 l 0.32311,-0.0387671 0.0389,-0.0129335 0.32307,-0.0258447 0.0388,-0.0129335 0.32308,-0.0258447 h 0.0389 l 0.31791,-0.0258447 h 0.0387 l 0.32307,-0.0258447 h 0.0389 l 0.32309,-0.0129335 0.0389,-0.0129335 0.32308,-0.0258447 0.0258,-0.0129335 0.32308,-0.0129335 h 0.0388 l 0.32308,-0.0258447 h 0.0258 l 0.32306,-0.0129335 h 0.0388 l 0.32306,-0.0129335 h 0.0387 l 0.32308,-0.0129335 h 0.0389 l 0.32306,-0.0129335 0.0388,-0.0129335 0.32306,-0.0129335 h 0.0389 l 0.32309,-0.0129335 h 0.0387 l 0.32308,-0.0129335 h 0.0389 l 0.32307,-0.0129335 h 0.0389 l 0.32308,-0.0129335 h 0.0258 l 0.32309,-0.0129335 h 0.40061 l 0.32307,-0.0129335 h 0.74955 z m -0.29722,34.892182 H 245.794 l -0.21194,0.0027 h -0.21065 l -0.2197,0.0051 -0.21968,0.0051 -0.21971,0.0066 -0.21969,0.01293 -0.21968,0.01293 -0.2197,0.01293 -0.20676,0.01293 -0.21969,0.01293 -0.20677,0.01293 -0.20676,0.01293 -0.20677,0.01293 -0.2197,0.01293 -0.20677,0.01293 -0.21968,0.02584 -0.21971,0.02584 -0.20676,0.02585 -0.2197,0.02584 -0.21968,0.02584 -0.21969,0.02584 -0.20677,0.02584 -0.2197,0.02584 -0.20675,0.02584 -0.20677,0.02584 -0.2197,0.02584 -0.20676,0.02584 -0.20678,0.02584 -0.20677,0.02584 -0.20678,0.02585 -0.21968,0.02584 -0.20675,0.03877 -0.20677,0.02585 -0.21969,0.03877 -0.20678,0.03877 -0.20677,0.03878 -0.20678,0.03877 -0.20676,0.03877 -0.20677,0.03877 -0.20678,0.03877 -0.20677,0.02585 -0.21968,0.03877 -0.20677,0.03877 -0.2197,0.03877 -0.20676,0.03878 -0.20676,0.03877 -0.20678,0.03877 -0.20677,0.05169 -0.20676,0.05169 -0.20677,0.05169 -0.20677,0.03877 -0.20676,0.03876 -0.20678,0.05169 -0.20678,0.05169 -0.20675,0.05169 -0.20676,0.05169 -0.20677,0.05169 -0.20678,0.05169 -0.20677,0.05169 -0.20676,0.05169 -0.20676,0.05169 -0.20677,0.05169 -0.20677,0.06461 -0.20678,0.05169 -0.20677,0.06461 -0.19384,0.06461 -0.20676,0.0646 -0.20678,0.06461 -0.20676,0.06461 -0.20677,0.0646 -0.20677,0.06461 -0.19386,0.0646 -0.20675,0.06461 -0.20677,0.07753 -0.20677,0.0646 -0.20677,0.06461 -0.20676,0.07753 -0.20678,0.0646 -0.20678,0.06461 -0.19383,0.0646 -0.20676,0.07753 -0.20678,0.07753 -0.20677,0.07753 -0.19385,0.07753 -0.20676,0.07753 -0.19386,0.07753 -0.19384,0.07753 -0.20677,0.09047 -0.20676,0.07753 -0.20678,0.07753 -0.20676,0.07753 -0.19384,0.09047 -0.19384,0.07754 -0.20678,0.09047 -0.19384,0.09047 -0.19386,0.09047 -0.19384,0.09047 -0.20676,0.09047 -0.19385,0.09047 -0.20677,0.09047 -0.19384,0.09047 -0.19385,0.09047 -0.19386,0.09047 -0.20675,0.09047 -0.19384,0.09047 -0.19385,0.09047 -0.19385,0.103401 -0.19385,0.10339 -0.19385,0.09047 -0.19384,0.103401 -0.19385,0.09047 -0.19383,0.103401 -0.19385,0.10339 -0.19385,0.103401 -0.19384,0.10339 -0.19385,0.103401 -0.19383,0.1163 -0.18094,0.10339 -0.19383,0.10339 -0.18094,0.103401 -0.19383,0.116311 -0.19386,0.116299 -0.19384,0.116299 -0.18092,0.103401 -0.19384,0.1163 -0.18092,0.116299 -0.19385,0.116299 -0.19385,0.116311 -0.20677,0.129231 -129.747229,79.967702 -0.219691,0.14217 -0.206758,0.12922 -0.193846,0.12925 -0.193858,0.12921 -0.193835,0.12924 -0.193846,0.12923 -0.193858,0.12923 -0.193846,0.12923 -0.193835,0.12922 -0.193847,0.12922 -0.193846,0.12925 -0.193846,0.12922 -0.193847,0.14217 -0.180913,0.12921 -0.180924,0.12924 -0.193846,0.12923 -0.180924,0.12924 -0.180924,0.12921 -0.180913,0.12924 -0.180924,0.12924 -0.180924,0.12921 -0.180935,0.12924 -0.180913,0.14216 -0.180924,0.12923 -0.180924,0.14215 -0.180913,0.14216 -0.180924,0.14215 -0.180935,0.14216 -0.180924,0.14214 -0.180924,0.14217 -0.168002,0.14214 -0.180913,0.14215 -0.180935,0.14215 -0.167991,0.14216 -0.180918,0.14215 -0.180924,0.14215 -0.168002,0.14217 -0.180924,0.14214 -0.16799,0.14216 -0.168002,0.14216 -0.168013,0.15505 -0.168001,0.15509 -0.167991,0.14215 -0.168002,0.14217 -0.168001,0.15507 -0.16798,0.15506 -0.168013,0.15509 -0.168001,0.15507 -0.168002,0.15508 -0.167991,0.15508 -0.168001,0.15508 -0.168013,0.15507 -0.167991,0.15508 -0.168001,0.15508 -0.168002,0.15507 -0.155068,0.15507 -0.167991,0.15508 -0.15509,0.16801 -0.168002,0.15508 -0.155068,0.16797 -0.155079,0.15511 -0.155091,0.168 -0.155068,0.15507 -0.155057,0.168 -0.15509,0.16799 -0.168002,0.168 -0.155068,0.15508 -0.15508,0.168 -0.15509,0.16798 -0.155068,0.168 -0.142157,0.168 -0.15508,0.16801 -0.155068,0.168 -0.155079,0.168 -0.155068,0.18091 -0.155069,0.168 -0.142168,0.168 -0.142157,0.16801 -0.155068,0.18093 -0.142146,0.168 -0.15509,0.16799 -0.142146,0.18093 -0.142146,0.168 -0.142157,0.18091 -0.142146,0.18093 -0.142157,0.18092 -0.142179,0.18091 -0.142135,0.18093 -0.142168,0.18093 -0.129212,0.18092 -0.142157,0.18092 -0.142146,0.18092 -0.142168,0.18093 -0.142146,0.18091 -0.129223,0.18092 -0.129235,0.18094 -0.129235,0.18091 -0.129222,0.19386 -0.129232,0.18091 -0.129245,0.18093 -0.129222,0.19384 -0.129233,0.18093 -0.129221,0.18091 -0.129245,0.18094 -0.129233,0.18091 -0.116302,0.19386 -0.129222,0.19383 -0.129244,0.18091 -0.129222,0.19387 -0.116314,0.19384 -0.116431,0.18093 -0.116315,0.19384 -0.11643,0.19383 -0.116163,0.19386 -0.116315,0.19384 -0.129221,0.19385 -0.129234,0.19384 -0.116314,0.19383 -0.11643,0.19387 -0.116303,0.19384 -0.116315,0.19384 -0.116313,0.19386 -0.11631,0.19384 -0.116432,0.19383 -0.116311,0.19385 -0.116311,0.19386 -0.116311,0.19384 -0.116431,0.20677 -0.116186,0.19385 -0.116312,0.19383 -0.11643,0.20677 -0.103334,0.19385 -0.103335,0.20678 -0.103334,0.20676 -0.103335,0.20678 -0.103334,0.19383 -0.103334,0.19385 -0.103335,0.20677 -0.103334,0.19384 -0.103334,0.20677 -0.09048,0.19385 -0.103334,0.20677 -0.103335,0.20676 -0.103334,0.20677 -0.103334,0.20676 -0.103335,0.20677 -0.09048,0.20677 -0.09048,0.20678 -0.09048,0.20676 -0.09048,0.20676 -0.09048,0.20677 -0.09048,0.20678 -0.09048,0.20677 -0.09048,0.20677 -0.09048,0.20677 -0.0775,0.20677 -0.09048,0.20676 -0.09048,0.21969 -0.09048,0.20678 -0.09048,0.20677 -0.09048,0.20675 -0.0775,0.20677 -0.09048,0.2197 -0.09048,0.20676 -0.0775,0.20677 -0.0775,0.21969 -0.0775,0.20677 -0.0775,0.2197 -0.0775,0.20677 -0.0775,0.21968 -0.0775,0.2197 -0.0775,0.21969 -0.06463,0.21968 -0.0775,0.20677 -0.0775,0.21971 -0.06464,0.21969 -0.06465,0.20677 -0.06463,0.21968 -0.0775,0.21969 -0.06464,0.20679 -0.06463,0.20677 -0.06464,0.21966 -0.0775,0.21971 -0.06464,0.21969 -0.06463,0.20677 -0.06465,0.21969 -0.06464,0.21969 -0.06463,0.21968 -0.06464,0.2197 -0.06464,0.21969 -0.05167,0.21969 -0.05179,0.21969 -0.06464,0.2197 -0.05167,0.21969 -0.06465,0.21969 -0.05179,0.2197 -0.05167,0.21968 -0.05179,0.23262 -0.05167,0.21968 -0.05179,0.21971 -0.05179,0.21968 -0.05167,0.21969 -0.05179,0.2197 -0.05179,0.21968 -0.03869,0.2197 -0.05179,0.21969 -0.03869,0.21968 -0.03881,0.23264 -0.03881,0.2326 -0.03881,0.23261 -0.03881,0.23262 -0.03881,0.21969 -0.03881,0.21969 -0.03881,0.23261 -0.03881,0.23263 -0.03881,0.21968 -0.03881,0.21969 -0.03881,0.21969 -0.03881,0.23261 -0.02583,0.23263 -0.02583,0.2326 -0.02583,0.2197 -0.03869,0.2326 -0.03881,0.2197 -0.02583,0.23262 -0.02583,0.23261 -0.02583,0.23262 -0.02583,0.23261 -0.02583,0.23262 -0.02583,0.23261 -0.02583,0.21969 -0.02583,0.23262 -0.02583,0.23261 -0.01286,0.23263 -0.02583,0.2326 -0.02583,0.23263 -0.01286,0.23259 -0.01286,0.23263 -0.01286,0.23261 -0.01286,0.23262 -0.01286,0.23261 -0.01286,0.23263 -0.01286,0.23259 -0.01287,0.23261 -0.01286,0.23263 -0.01286,0.2326 v 0.23264 l -0.01287,0.2326 -0.01286,0.23261 v 0.23262 l -0.01286,0.23262 v 163.86402 l 0.01286,0.23261 v 0.69787 l 0.01286,0.21968 0.01287,0.23261 0.01286,0.23261 0.01286,0.23262 0.01287,0.23262 0.01286,0.23261 0.01286,0.23262 0.01286,0.23259 0.01286,0.23262 0.02583,0.23262 0.01286,0.23261 0.01285,0.23263 0.01286,0.23261 0.02583,0.21969 0.02583,0.23261 0.02583,0.21968 0.01286,0.23263 0.02583,0.21969 0.02583,0.21969 0.02583,0.21969 0.02583,0.21969 0.02583,0.23263 0.02583,0.21967 0.02583,0.2197 0.02583,0.23261 0.02583,0.23263 0.02583,0.21968 0.02583,0.23262 0.03881,0.21969 0.03881,0.21969 0.03881,0.2197 0.03881,0.21968 0.03869,0.23263 0.03881,0.21968 0.03881,0.2197 0.03881,0.21969 0.03881,0.21968 0.05179,0.2197 0.03881,0.21968 0.03881,0.21971 0.03881,0.21969 0.05179,0.21968 0.05167,0.2197 0.03881,0.21969 0.05179,0.21969 0.05179,0.21969 0.05167,0.21969 0.05179,0.21969 0.05167,0.2197 0.05179,0.21968 0.05179,0.2197 0.05167,0.20676 0.06463,0.20676 0.05179,0.21971 0.05167,0.21968 0.05167,0.2197 0.06464,0.2197 0.05179,0.20675 0.05179,0.21969 0.05167,0.20679 0.06463,0.21968 0.05179,0.20677 0.06463,0.21969 0.06464,0.21969 0.06463,0.20677 0.06464,0.2197 0.06464,0.21968 0.06463,0.20677 0.06465,0.2197 0.0775,0.20676 0.0775,0.20678 0.0775,0.20677 0.0775,0.20676 0.06464,0.20676 0.0775,0.2197 0.0775,0.20676 0.0775,0.20676 0.0775,0.20678 0.0775,0.20677 0.0775,0.20677 0.0775,0.20676 0.0775,0.20678 0.0775,0.20678 0.0775,0.20677 0.09048,0.20675 0.09048,0.20677 0.0775,0.20677 0.0775,0.20678 0.0775,0.20676 0.0775,0.20676 0.0775,0.20676 0.09048,0.20676 0.09048,0.20678 0.09048,0.20678 0.09048,0.20677 0.09048,0.20676 0.09048,0.20677 0.09048,0.20677 0.09048,0.20678 0.09048,0.20675 0.09048,0.20677 0.09048,0.20677 0.09048,0.19385 0.103335,0.20678 0.103334,0.19382 0.103334,0.20677 0.103335,0.19387 0.103334,0.19383 0.103335,0.19385 0.103334,0.19385 0.103334,0.19384 0.103335,0.19384 0.116186,0.19384 0.103335,0.19385 0.103334,0.19385 0.103334,0.19384 0.116312,0.19385 0.116311,0.19386 0.103334,0.19384 0.103334,0.19384 0.103335,0.19383 0.11631,0.19386 0.103334,0.19384 0.116311,0.18092 0.116313,0.19385 0.116311,0.18092 0.116317,0.19385 0.116302,0.19385 0.116314,0.18092 0.116315,0.18092 0.116302,0.18093 0.116315,0.18092 0.116431,0.19384 0.116314,0.19384 0.129233,0.18093 0.116303,0.18092 0.116313,0.19385 0.116432,0.18092 0.116314,0.18092 0.129221,0.18092 0.129245,0.18093 0.12921,0.19385 0.129232,0.18091 0.129234,0.18093 0.129232,0.18093 0.129234,0.18091 0.129221,0.18093 0.129234,0.18092 0.129232,0.18093 0.142164,0.18091 0.142144,0.18092 0.129224,0.18094 0.129235,0.1809 0.129223,0.18093 0.129235,0.18092 0.142157,0.168 0.142157,0.168 0.142146,0.18092 0.142168,0.16802 0.142134,0.18091 0.142168,0.16799 0.142135,0.168 0.142157,0.168 0.142157,0.16799 0.142146,0.16801 0.142157,0.16801 0.142157,0.168 0.142146,0.16798 0.142168,0.168 0.142146,0.168 0.142157,0.16799 0.155068,0.16802 0.155079,0.168 0.142146,0.168 0.155079,0.15507 0.15508,0.168 0.155068,0.15508 0.15509,0.168 0.142146,0.16799 0.15508,0.168 0.155079,0.15508 0.155079,0.15508 0.15508,0.15508 0.155068,0.15507 0.155068,0.168 0.155079,0.15508 0.15508,0.15507 0.155079,0.15508 0.155068,0.15509 0.155079,0.15507 0.168002,0.15507 0.155091,0.15509 0.155057,0.15506 0.168001,0.15507 0.15508,0.15509 0.155079,0.15507 0.168002,0.15507 0.16799,0.14217 0.168002,0.14214 0.168002,0.15508 0.168001,0.15508 0.167991,0.14215 0.168001,0.14215 0.168002,0.15508 0.167991,0.15507 0.168001,0.14217 0.180936,0.14213 0.180912,0.14217 0.180936,0.14215 0.16799,0.14216 0.168002,0.14214 0.180924,0.14215 0.16799,0.14217 0.180936,0.12923 0.168007,0.14216 0.180913,0.14213 0.180924,0.14217 0.180913,0.14215 0.168001,0.12923 0.180924,0.14215 0.180924,0.12924 0.180935,0.14215 0.180924,0.14215 0.180924,0.12922 0.180913,0.12923 0.193847,0.12924 0.180924,0.12923 0.180924,0.12924 0.180924,0.12922 0.180913,0.12923 0.180924,0.12924 0.180935,0.12922 0.193835,0.12924 0.193835,0.1163 0.193847,0.12923 0.180924,0.12924 0.193846,0.12922 0.193847,0.12923 0.180924,0.11632 0.193846,0.1163 0.193846,0.11643 0.193858,0.11616 0.193835,0.11643 0.193835,0.11632 0.206769,0.11616 0.193858,0.11643 0.193835,0.11617 0.219702,0.12923 135.27828,79.08894 0.16799,0.10334 0.14216,0.0776 0.15508,0.0774 0.15506,0.0774 0.15509,0.0776 0.14215,0.0905 0.15508,0.0774 0.15508,0.0774 0.15508,0.0776 0.15508,0.0904 0.15505,0.0774 0.15507,0.0776 0.1551,0.0774 0.15507,0.0774 0.15507,0.0776 0.15509,0.0774 0.15508,0.0774 0.15507,0.0775 0.14216,0.0774 0.15506,0.0774 0.15507,0.0776 0.15509,0.0647 0.15507,0.0774 0.15507,0.0647 0.1551,0.0647 0.15507,0.0647 0.15507,0.0774 0.15509,0.0776 0.15507,0.0647 0.15506,0.0776 0.15508,0.0647 0.15508,0.0647 0.15507,0.0647 0.15508,0.0647 0.15509,0.0647 0.15507,0.0647 0.15508,0.0647 0.15508,0.0647 0.15507,0.0647 0.15507,0.0518 0.16801,0.0647 0.15508,0.0647 0.15506,0.0647 0.15508,0.0647 0.15509,0.0647 0.15507,0.0517 0.15507,0.0647 0.15508,0.0518 0.15507,0.0518 0.168,0.0518 0.15509,0.0517 0.14215,0.0518 0.33599,0.10334 0.32309,0.10333 0.32307,0.0904 0.32307,0.0904 0.32308,0.0905 0.32306,0.0904 0.32309,0.0904 0.32308,0.0905 0.32307,0.0904 0.32307,0.0776 0.32308,0.0774 0.32307,0.0774 0.32308,0.0647 0.32307,0.0774 0.32308,0.0647 0.32306,0.0647 0.32311,0.0647 0.32307,0.0518 0.32307,0.0647 0.32308,0.0517 0.32307,0.0518 0.336,0.0518 0.32306,0.0518 0.33601,0.0389 0.336,0.0388 0.33599,0.0388 0.336,0.0258 0.32308,0.0258 0.33601,0.0258 0.32307,0.0258 0.33599,0.0258 0.33601,0.0258 0.32306,0.0258 0.32309,0.0129 0.32306,0.0129 0.33601,0.0129 h 1.65415 l 0.336,-0.0129 h 0.33599 l 0.336,-0.0129 0.33601,-0.0129 0.33599,-0.0258 0.33599,-0.0258 0.33601,-0.0129 0.336,-0.0258 0.33599,-0.0258 0.33602,-0.0258 0.32307,-0.0258 0.33601,-0.0388 0.33598,-0.0389 0.32307,-0.0388 0.336,-0.0388 0.32307,-0.0518 0.336,-0.0517 0.32309,-0.0518 0.33599,-0.0518 0.32308,-0.0517 0.32306,-0.0647 0.32309,-0.0518 0.33599,-0.0647 0.32309,-0.0647 0.32307,-0.0776 0.32309,-0.0647 0.32307,-0.0774 0.32306,-0.0774 0.32309,-0.0776 0.32307,-0.0774 0.32307,-0.0905 0.32308,-0.0904 0.32307,-0.0904 0.32308,-0.0905 0.336,-0.10333 0.15507,-0.0518 0.15508,-0.0517 0.15508,-0.0518 0.16801,-0.0518 0.15507,-0.0518 0.16799,-0.0517 0.15507,-0.0518 0.15508,-0.0518 0.16801,-0.0518 0.15507,-0.0517 0.15509,-0.0518 0.16799,-0.0647 0.15507,-0.0518 0.16801,-0.0517 0.15508,-0.0647 0.15507,-0.0518 0.15507,-0.0518 0.15509,-0.0517 0.16799,-0.0647 0.15508,-0.0518 0.15507,-0.0647 0.15509,-0.0647 0.15507,-0.0647 0.15506,-0.0647 0.15511,-0.0647 0.15506,-0.0647 0.15506,-0.0647 0.15508,-0.0647 0.15509,-0.0647 0.15507,-0.0647 0.15508,-0.0774 0.15508,-0.0774 0.15507,-0.0647 0.15509,-0.0774 0.15508,-0.0776 0.15505,-0.0647 0.15508,-0.0774 0.15507,-0.0774 0.15509,-0.0775 0.14215,-0.0776 0.15508,-0.0774 0.15509,-0.0774 0.15506,-0.0774 0.15507,-0.0775 0.15508,-0.0774 0.15509,-0.0774 0.15506,-0.0776 0.15508,-0.0774 0.14214,-0.0774 0.15508,-0.0776 0.15509,-0.0774 0.16801,-0.0904 149.86838,-83.52154 0.18091,-0.0904 0.16801,-0.0904 0.15507,-0.0905 0.15507,-0.0904 0.15508,-0.0904 0.15508,-0.10333 0.168,-0.0904 0.15508,-0.0904 0.15507,-0.0904 0.15509,-0.0904 0.15508,-0.10334 0.15505,-0.10333 0.15508,-0.0904 0.15507,-0.0904 0.15509,-0.0905 0.15508,-0.10333 0.15507,-0.10333 0.15508,-0.0904 0.15509,-0.10333 0.15507,-0.0904 0.14215,-0.10333 0.14215,-0.10334 0.14216,-0.10333 0.14214,-0.10334 0.14216,-0.10333 0.15508,-0.10334 0.14214,-0.10333 0.15508,-0.10333 0.14216,-0.10334 0.14216,-0.10333 0.14214,-0.10334 0.14215,-0.10333 0.14217,-0.10334 0.15507,-0.10333 0.14215,-0.11617 0.14215,-0.10333 0.14217,-0.11617 0.14213,-0.10334 0.14216,-0.11616 0.14216,-0.11644 0.14214,-0.11615 0.14216,-0.10334 0.14214,-0.10333 0.14218,-0.11644 0.12922,-0.11615 0.14216,-0.11644 0.14214,-0.11617 0.12923,-0.10333 0.14216,-0.11631 0.14215,-0.12923 0.12923,-0.11643 0.14217,-0.11616 0.12922,-0.11617 0.12923,-0.11642 0.12922,-0.12923 0.14216,-0.11632 0.12923,-0.12921 0.12922,-0.11631 0.12924,-0.12922 0.12922,-0.12924 0.12925,-0.11617 0.12922,-0.12921 0.12924,-0.11643 0.12923,-0.12924 0.12922,-0.12922 0.12924,-0.12925 0.12922,-0.12923 0.11617,-0.12921 0.12924,-0.12923 0.11615,-0.12922 0.12924,-0.12925 0.12923,-0.12923 0.12924,-0.12923 0.1163,-0.12922 0.11615,-0.12923 0.11617,-0.12924 0.11644,-0.12922 0.12922,-0.12924 0.11617,-0.12924 0.11643,-0.12923 0.1163,-0.12922 0.11616,-0.12922 0.11643,-0.12925 0.11617,-0.12922 0.11643,-0.12923 0.11616,-0.14215 0.11617,-0.14216 0.11631,-0.14215 0.11616,-0.12923 0.11631,-0.12923 0.11633,-0.12923 0.11642,-0.14215 0.11617,-0.12923 0.11615,-0.14216 0.10334,-0.12923 0.10333,-0.14216 0.10334,-0.14214 0.10333,-0.12924 0.11617,-0.14214 0.10333,-0.14217 0.10334,-0.14214 0.10333,-0.14216 0.10334,-0.14215 0.10333,-0.14216 0.10333,-0.14214 0.10334,-0.14216 0.10333,-0.14216 0.10334,-0.14215 0.10333,-0.14215 0.10334,-0.14216 0.10333,-0.14215 0.0904,-0.14215 0.0904,-0.15508 0.10334,-0.15508 0.10333,-0.14214 0.0904,-0.14216 0.0904,-0.14216 0.10334,-0.15507 0.10333,-0.14216 0.0904,-0.14214 0.0904,-0.15509 0.0905,-0.15508 0.0904,-0.15507 0.0904,-0.15508 0.0904,-0.14215 0.0904,-0.15507 0.0904,-0.15508 0.0905,-0.14215 0.0904,-0.15508 0.0904,-0.15508 0.0904,-0.15506 0.0774,-0.15508 0.0776,-0.15509 0.0904,-0.15507 0.0905,-0.15508 0.0774,-0.15508 0.0905,-0.15506 0.0904,-0.15509 0.0775,-0.15507 0.0775,-0.15508 0.0774,-0.168 0.0774,-0.15508 0.0904,-0.15509 0.0904,-0.15505 0.0776,-0.15508 0.0774,-0.15507 0.0775,-0.15508 0.0774,-0.168 0.0774,-0.15508 0.0776,-0.15509 0.0774,-0.16799 0.0774,-0.15507 0.0776,-0.15508 0.0774,-0.16801 0.0774,-0.168 0.0775,-0.16799 0.0776,-0.15507 0.0647,-0.15507 0.0647,-0.16801 0.0647,-0.16799 0.0647,-0.16801 0.0647,-0.15508 0.0647,-0.168 0.0647,-0.168 0.0647,-0.168 0.0647,-0.15507 0.0647,-0.168 0.0647,-0.168 0.0647,-0.168 0.0647,-0.16801 0.0647,-0.16799 0.0518,-0.16799 0.0517,-0.168 0.0518,-0.168 0.0518,-0.16801 0.0647,-0.16799 0.0647,-0.16801 0.0647,-0.168 0.0647,-0.16799 0.0517,-0.168 0.0647,-0.168 0.0518,-0.168 0.0518,-0.16799 0.0647,-0.168 0.0518,-0.16801 0.0518,-0.16799 0.0518,-0.16801 0.0517,-0.168 0.0389,-0.168 0.0518,-0.16799 0.0517,-0.16799 0.0518,-0.16801 0.0518,-0.168 0.0388,-0.168 0.0388,-0.18093 0.0518,-0.16799 0.0388,-0.16801 0.0388,-0.18092 0.0517,-0.16799 0.0389,-0.168 0.0388,-0.16802 0.0388,-0.16799 0.0389,-0.18092 0.0388,-0.168 0.0388,-0.16799 0.0258,-0.18093 0.0389,-0.18091 0.0389,-0.168 0.0258,-0.18094 0.0387,-0.168 0.0389,-0.18092 0.0389,-0.18093 0.0388,-0.16799 0.0388,-0.18092 0.0258,-0.18092 0.0388,-0.18092 0.0258,-0.168 0.0389,-0.16799 0.0258,-0.18093 0.0258,-0.18092 0.0258,-0.18093 0.0258,-0.18092 0.0258,-0.18092 0.0258,-0.18093 0.0258,-0.18091 0.0128,-0.18093 0.0258,-0.168 0.0129,-0.18093 0.0258,-0.18092 0.0258,-0.168 0.0258,-0.18092 0.0129,-0.18092 0.0129,-0.18094 0.0129,-0.1809 0.0129,-0.18093 0.0258,-0.18092 0.0129,-0.18093 0.0129,-0.18091 0.0129,-0.18093 0.0128,-0.18092 0.0129,-0.18091 0.0129,-0.18094 0.0129,-0.18091 0.0129,-0.18093 0.0129,-0.18092 0.0129,-0.18092 0.0129,-0.18093 v -0.36184 l 0.0129,-0.18093 V 161.69812 l -0.0129,-0.15896 -0.0129,-0.168 v -0.16799 l -0.0129,-0.168 v -0.168 l -0.0129,-0.16799 v -0.168 l -0.0129,-0.16801 -0.0129,-0.15506 -0.0129,-0.16801 -0.0129,-0.168 -0.0128,-0.168 -0.0129,-0.15507 -0.0129,-0.16799 -0.0129,-0.15509 -0.0129,-0.168 -0.0258,-0.168 -0.0129,-0.15507 -0.0129,-0.15509 -0.0258,-0.15507 -0.0129,-0.15507 -0.0258,-0.168 -0.0129,-0.15508 -0.0258,-0.15508 -0.0258,-0.168 -0.0128,-0.16799 -0.0129,-0.15508 -0.0258,-0.14216 -0.0517,-0.33987 -0.0388,-0.32953 -0.0518,-0.33601 -0.0517,-0.32307 -0.0647,-0.32308 -0.0647,-0.32307 -0.0518,-0.32308 -0.0647,-0.32307 -0.0776,-0.32308 -0.0774,-0.32308 -0.0776,-0.32308 -0.0774,-0.32306 -0.0774,-0.32309 -0.0776,-0.32306 -0.0774,-0.32308 -0.0904,-0.32308 -0.0904,-0.32307 -0.0904,-0.32308 -0.10334,-0.32308 -0.0904,-0.31014 -0.10334,-0.31017 -0.10333,-0.31015 -0.10334,-0.31014 -0.10333,-0.31016 -0.11632,-0.31015 -0.11616,-0.31016 -0.11631,-0.29722 -0.11633,-0.31016 -0.11615,-0.31015 -0.11617,-0.31016 -0.12922,-0.29721 -0.11643,-0.31017 -0.12923,-0.29724 -0.12923,-0.29721 -0.12923,-0.29724 -0.14215,-0.29724 -0.12923,-0.29723 -0.14216,-0.29721 -0.14215,-0.29723 -0.14215,-0.28432 -0.15508,-0.29723 -0.14216,-0.29724 -0.15507,-0.29721 -0.15509,-0.28432 -0.15506,-0.2843 -0.15506,-0.2843 -0.1551,-0.28432 -0.15507,-0.2843 -0.168,-0.2843 -0.168,-0.2843 -0.16798,-0.28433 -0.18094,-0.28429 -0.16801,-0.27137 -0.16799,-0.2714 -0.18093,-0.27139 -0.18091,-0.27137 -0.18093,-0.2714 -0.18093,-0.27138 -0.18091,-0.27139 -0.18093,-0.27137 -0.19384,-0.25847 -0.19385,-0.25844 -0.19384,-0.25847 -0.19385,-0.25846 -0.19384,-0.25847 -0.20678,-0.25846 -0.20676,-0.25846 -0.20677,-0.25844 -0.20675,-0.25847 -0.20678,-0.24554 -0.21969,-0.24555 -0.20677,-0.24553 -0.2197,-0.24554 -0.21969,-0.24553 -0.21969,-0.24554 -0.21971,-0.24553 -0.21966,-0.24555 -0.23263,-0.23261 -0.2326,-0.23262 -0.23263,-0.2326 -0.23261,-0.23262 -0.23262,-0.23262 -0.24553,-0.23261 -0.24553,-0.23263 -0.24555,-0.21969 -0.24553,-0.21969 -0.24554,-0.21968 -0.24555,-0.2197 -0.24552,-0.21969 -0.25847,-0.21969 -0.25845,-0.20677 -0.25848,-0.20676 -0.24553,-0.20677 -0.27138,-0.2197 -0.11616,-0.0905 -0.12924,-0.10333 -0.12924,-0.10333 -0.12923,-0.10334 -0.12922,-0.10333 -0.12922,-0.0905 -0.12925,-0.10333 -0.12924,-0.10334 -0.14214,-0.10333 -0.14215,-0.10334 -0.12923,-0.10333 -0.12924,-0.10333 -0.12923,-0.10334 -0.12922,-0.0904 -0.12923,-0.10334 -0.14215,-0.10333 -0.12924,-0.0905 -0.12922,-0.0904 -0.14217,-0.10334 -0.14216,-0.0904 -0.14213,-0.0905 -0.12924,-0.0904 -0.14214,-0.0905 -0.14216,-0.0904 -0.14215,-0.0905 -0.14216,-0.0905 -0.14216,-0.0904 -0.14216,-0.0905 -0.14216,-0.0904 -0.14214,-0.0904 -0.14216,-0.0904 -0.14213,-0.0774 -0.14217,-0.0776 -0.168,-0.0904 -146.23571,-85.794722 -0.20677,-0.126647 -0.18739,-0.10339 -0.19384,-0.1163 -0.19386,-0.1163 -0.18995,-0.107267 -0.19385,-0.10339 -0.18738,-0.10339 -0.19386,-0.103401 -0.19383,-0.10339 -0.19386,-0.10339 -0.18997,-0.103401 -0.19383,-0.10339 -0.19385,-0.10339 -0.19386,-0.10339 -0.19383,-0.103401 -0.19386,-0.103401 -0.19382,-0.10339 -0.19774,-0.09047 -0.19385,-0.103401 -0.19384,-0.09047 -0.19385,-0.09047 -0.19383,-0.103378 -0.20031,-0.09047 -0.19385,-0.09047 -0.19384,-0.09047 -0.20161,-0.09047 -0.19384,-0.09047 -0.19384,-0.07753 -0.20032,-0.09047 -0.19643,-0.09047 -0.19384,-0.09047 -0.2003,-0.07753 -0.19386,-0.07753 -0.20677,-0.07753 -0.19901,-0.09047 -0.20418,-0.07753 -0.20678,-0.09047 -0.20677,-0.07753 -0.2003,-0.07753 -0.20029,-0.07753 -0.20289,-0.07753 -0.20677,-0.07753 -0.20678,-0.07753 -0.19385,-0.07753 -0.19384,-0.0646 -0.19385,-0.0646 -0.20676,-0.07753 -0.20678,-0.06461 -0.19383,-0.0646 -0.20678,-0.0646 -0.20676,-0.0646 -0.19384,-0.06461 -0.20677,-0.0646 -0.20678,-0.0646 -0.20677,-0.0646 -0.19383,-0.06461 -0.20677,-0.0646 -0.20677,-0.0646 -0.20678,-0.06461 -0.20676,-0.05169 -0.20677,-0.06461 -0.20677,-0.05169 -0.20677,-0.0646 -0.20677,-0.05169 -0.20677,-0.05169 -0.20676,-0.05169 -0.20677,-0.0646 -0.20676,-0.05169 -0.20679,-0.05169 -0.20677,-0.03877 -0.20677,-0.05169 -0.20676,-0.05169 -0.20677,-0.05169 -0.20678,-0.03876 -0.20676,-0.05169 -0.20676,-0.03877 -0.20676,-0.03878 -0.20677,-0.05169 -0.20677,-0.03877 -0.20678,-0.03877 -0.20677,-0.03876 -0.20676,-0.03877 -0.20677,-0.03878 -0.20676,-0.03877 -0.2197,-0.03876 -0.20678,-0.02585 -0.20676,-0.02584 -0.20677,-0.02584 -0.20677,-0.02585 -0.20677,-0.03877 -0.20674,-0.03876 -0.20678,-0.02584 -0.2197,-0.03877 -0.20676,-0.02585 -0.20677,-0.03877 -0.20677,-0.02584 -0.20678,-0.02584 -0.20677,-0.02585 -0.20677,-0.02584 -0.20677,-0.02584 -0.21969,-0.02585 -0.20675,-0.01293 -0.20677,-0.02585 -0.20678,-0.02584 -0.20676,-0.01293 -0.20677,-0.01293 -0.20677,-0.01293 -0.20677,-0.01293 -0.20675,-0.01293 -0.21972,-0.01293 -0.21969,-0.01293 -0.20676,-0.01293 -0.20677,-0.01293 h -0.20676 l -0.20677,-0.01293 -0.20676,-0.01293 h -0.2197 l -0.20678,-0.01293 -0.20676,-0.01293 -0.19385,-0.01293 -0.20677,-0.01293 h -0.42646 l -0.20676,-0.01293 h -0.41354 z"
     id="path134"
     style="stroke-width:1.29229" />
  <path
     fill="#ffffff"
     fill-rule="nonzero"
     d="M 147.66168,382.83186 V 115.04082 h 56.02649 v 97.54302 h 92.93726 v -97.54302 h 56.18934 V 382.83186 H 296.62543 V 265.74143 h -92.93726 v 117.09043 z"
     id="path136"
     style="stroke-width:1.29229" />
</svg>
