<?xml version="1.0" encoding="UTF-8" standalone="no"?>
<svg
   viewBox="0 0 500 500"
   version="1.1"
   id="svg136"
   sodipodi:docname="javascript.svg"
   width="500"
   height="500"
   inkscape:version="1.2 (dc2aeda, 2022-05-15)"
   xmlns:inkscape="http://www.inkscape.org/namespaces/inkscape"
   xmlns:sodipodi="http://sodipodi.sourceforge.net/DTD/sodipodi-0.dtd"
   xmlns="http://www.w3.org/2000/svg"
   xmlns:svg="http://www.w3.org/2000/svg">
  <defs
     id="defs140" />
  <sodipodi:namedview
     id="namedview138"
     pagecolor="#505050"
     bordercolor="#eeeeee"
     borderopacity="1"
     inkscape:showpageshadow="0"
     inkscape:pageopacity="0"
     inkscape:pagecheckerboard="0"
     inkscape:deskcolor="#505050"
     showgrid="false"
     inkscape:zoom="0.75479196"
     inkscape:cx="389.5113"
     inkscape:cy="301.40756"
     inkscape:window-width="1440"
     inkscape:window-height="847"
     inkscape:window-x="0"
     inkscape:window-y="25"
     inkscape:window-maximized="1"
     inkscape:current-layer="svg136" />
  <rect
     width="500"
     height="500"
     fill="#f7df1e"
     id="rect132"
     x="0"
     y="0"
     style="stroke-width:0.793651" />
  <path
     d="m 335.87301,390.62698 c 10.07143,16.44444 23.17461,28.53174 46.3492,28.53174 19.46826,0 31.90476,-9.73016 31.90476,-23.1746 0,-16.11111 -12.77777,-21.81746 -34.20634,-31.19048 l -11.74604,-5.03968 c -33.90476,-14.44444 -56.42857,-32.53968 -56.42857,-70.79364 0,-35.2381 26.84922,-62.06349 68.80953,-62.06349 29.87301,0 51.3492,10.39681 66.8254,37.61904 l -36.58731,23.49206 c -8.05555,-14.44444 -16.74602,-20.13492 -30.23809,-20.13492 -13.7619,0 -22.48413,8.73016 -22.48413,20.13492 0,14.09524 8.73016,19.80159 28.88889,28.53175 l 11.74603,5.03175 c 39.92063,17.11904 62.46032,34.57142 62.46032,73.80951 0,42.30159 -33.23016,65.4762 -77.85715,65.4762 -43.63492,0 -71.82538,-20.79366 -85.61904,-48.04763 z m -165.97619,4.07142 c 7.38096,13.09525 14.09524,24.16668 30.23809,24.16668 15.43651,0 25.17461,-6.03969 25.17461,-29.52382 v -159.7619 h 46.98412 v 160.39682 c 0,48.65079 -28.5238,70.79365 -70.15872,70.79365 -37.61905,0 -59.40476,-19.46825 -70.48413,-42.91666 z"
     id="path134"
     style="stroke-width:0.793651" />
</svg>
