<?xml version="1.0" encoding="UTF-8" standalone="no"?>
<!-- Created with Inkscape (http://www.inkscape.org/) -->

<svg
   width="1757.006"
   height="469.685"
   viewBox="0 0 464.87448 124.27082"
   version="1.1"
   id="svg5"
   inkscape:version="1.2 (dc2aeda, 2022-05-15)"
   sodipodi:docname="OpenStudyWithTitleDark.svg"
   inkscape:export-filename="apple-touch-icon180.png"
   inkscape:export-xdpi="96"
   inkscape:export-ydpi="96"
   xmlns:inkscape="http://www.inkscape.org/namespaces/inkscape"
   xmlns:sodipodi="http://sodipodi.sourceforge.net/DTD/sodipodi-0.dtd"
   xmlns="http://www.w3.org/2000/svg"
   xmlns:svg="http://www.w3.org/2000/svg">
  <sodipodi:namedview
     id="namedview7"
     pagecolor="#505050"
     bordercolor="#eeeeee"
     borderopacity="1"
     inkscape:showpageshadow="0"
     inkscape:pageopacity="0"
     inkscape:pagecheckerboard="0"
     inkscape:deskcolor="#505050"
     inkscape:document-units="mm"
     showgrid="false"
     inkscape:zoom="0.36976184"
     inkscape:cx="-139.27884"
     inkscape:cy="220.41214"
     inkscape:window-width="1652"
     inkscape:window-height="1205"
     inkscape:window-x="0"
     inkscape:window-y="25"
     inkscape:window-maximized="0"
     inkscape:current-layer="layer1">
    <inkscape:grid
       type="xygrid"
       id="grid132"
       originx="-8.5649702"
       originy="-4.0106346"
       enabled="false" />
    <inkscape:grid
       type="axonomgrid"
       id="grid136"
       units="px"
       spacingy="26.458332"
       empspacing="5"
       originx="520.6011"
       originy="525.15551" />
  </sodipodi:namedview>
  <defs
     id="defs2" />
  <g
     inkscape:label="Layer 1"
     inkscape:groupmode="layer"
     id="layer1"
     transform="translate(-8.5649839,-4.0106362)">
    <g
       id="g420"
       transform="matrix(0.26999929,-0.04947525,0.04947525,0.26999929,-16.352839,9.5358065)"
       style="fill:#ffffff;fill-opacity:1;stroke:none;stroke-width:5.61527;stroke-dasharray:none;stroke-opacity:1">
      <path
         style="fill:#ffffff;fill-opacity:1;stroke:none;stroke-width:5.61527;stroke-dasharray:none;stroke-opacity:1"
         d="m 300.03071,291.04162 -22.91357,-13.22917 v -26.45833 l 22.91357,-13.22917 22.91361,13.22917 v 26.45833 z"
         id="path416" />
      <path
         id="path418"
         style="fill:#ffffff;fill-opacity:1;stroke:none;stroke-width:5.61202;stroke-linecap:butt;stroke-linejoin:round;stroke-dasharray:none;stroke-opacity:1"
         d="m 231.28996,171.97958 v 26.45833 l 22.91385,13.22917 22.91333,-13.22917 V 171.97917 L 300.03078,158.75 v -26.45833 l 22.91333,-13.22917 22.91385,13.22917 V 158.75 l -22.91385,13.22917 v 26.45833 l 22.91385,13.22917 22.91333,-13.22917 22.91385,13.22917 22.91333,-13.22917 22.91384,13.22917 V 238.125 l -22.91384,13.22917 -22.91333,-13.22917 -22.91385,13.22917 v 26.45833 l 22.91385,13.22917 V 317.5 l 22.91333,13.22917 V 357.1875 L 391.68514,370.41667 368.77129,357.1875 V 330.72917 L 345.85796,317.5 322.94411,330.72917 v 26.45833 l -22.91333,13.22917 V 396.875 L 277.11694,410.10417 254.20361,396.875 V 370.41667 L 277.11694,357.1875 V 330.72917 L 254.20361,317.5 231.28976,330.72917 208.37643,317.5 185.46258,330.72917 162.54925,317.5 v -26.45833 l 22.91333,-13.22917 22.91385,13.22917 22.91333,-13.22917 V 251.35417 L 208.37643,238.125 V 211.66667 L 185.4631,198.4375 v -26.45833 l 22.91317,-13.22897 z m -22.91508,-43.23292 c -4.0219,-6e-4 -7.97295,-1.0598 -11.45611,-3.06955 -3.48316,-2.00975 -7.43423,-3.06911 -11.45596,-3.06971 -4.0561,-5e-5 -7.86511,1.05535 -13.1401,4.13091 -5.27498,3.07556 -9.77392,10.40322 -9.774,18.78224 v 0.3483 c -0.054,3.78102 -1.04452,7.60099 -3.06958,11.10837 -2.01137,3.48267 -4.90432,6.37507 -8.38675,8.38712 -3.48242,2.01205 -6.37491,4.90429 -8.38638,8.38705 -2.03389,3.52254 -3.02458,7.36096 -3.07062,11.15797 v 0.53899 c 0.0894,7.8264 4.18735,15.40628 11.45719,19.60345 l -5.2e-4,5.2e-4 0.26768,0.154 0.014,0.008 0.002,0.001 c 3.25523,1.9378 6.07519,4.70957 8.10389,8.22379 2.01043,3.48319 3.06848,7.43493 3.06803,11.45666 l 0.002,0.002 -0.002,0.32505 v -7e-5 c -0.0502,3.78866 -1.04028,7.61689 -3.06958,11.13162 -1.50493,2.68979 -10.12659,9.39183 -10.12659,9.39183 -1.74157,1.00528 -4.63457,3.89751 -6.64603,7.38027 -2.02929,3.51459 -3.01938,7.34337 -3.07056,11.45783 -0.0512,4.11447 -1.04179,7.94273 -3.07109,11.45747 -2.01133,3.48262 -4.90432,6.37496 -8.3876,8.38553 -3.43396,2.43239 -6.5738,5.32252 -8.3846,8.38654 -2.03012,3.51602 -3.02063,7.34652 -3.0701,11.13679 v 0.61029 c 0.10627,7.80561 4.19922,15.35876 11.44788,19.54817 l 0.009,0.005 -5.2e-4,0.002 0.27544,0.1571 0.006,0.004 0.002,10e-4 c 3.2554,1.9378 6.07555,4.70958 8.10441,8.22379 2.01043,3.48336 3.06848,7.43426 3.06803,11.45615 l 0.004,5.1e-4 c -4.5e-4,4.02188 1.0576,7.97294 3.06803,11.45615 2.02902,3.51448 4.84938,6.28697 8.10493,8.22482 l 0.008,0.005 0.51729,0.29869 c 0.005,0.003 0.009,0.005 0.0134,0.008 6.81478,3.8095 15.40449,4.03885 22.65702,-0.14831 l 0.29765,-0.17208 c 3.30242,-1.84518 7.1074,-2.89809 11.15901,-2.89802 4.0219,5.9e-4 7.97292,1.05992 11.45563,3.07113 l 0.003,-5.1e-4 0.28064,0.16426 v 5e-4 c 3.25605,1.93786 6.07626,4.70952 8.10544,8.22431 2.01043,3.48335 3.069,7.43477 3.06855,11.45666 0.38941,4.18266 1.32362,8.3537 3.07103,11.45267 2.02808,3.51293 4.84689,6.284 8.10079,8.22172 0.002,9.5e-4 0.003,0.002 0.005,0.003 l 0.56373,0.32756 c 3.25607,1.93786 6.07625,4.70952 8.10545,8.22431 1.61233,2.48847 2.59966,7.12741 2.83488,11.30194 0.23522,4.17453 1.29327,8.12558 3.3037,11.6088 2.02889,3.51448 4.84924,6.28697 8.10493,8.22482 l 0.008,0.005 0.51728,0.29869 c 0.005,0.003 0.009,0.005 0.0134,0.008 6.8148,3.8095 15.40461,4.03885 22.65701,-0.14831 l 0.002,-10e-4 0.28113,-0.16176 c 7.48954,-3.67909 15.85429,-3.65974 22.63118,0.16381 3.82622,1.75806 7.89662,3.03193 11.45615,3.06813 4.05216,5e-5 7.8583,-1.05289 11.16107,-2.89853 l 0.56377,-0.32526 c 6.70025,-3.99862 11.18839,-11.31959 11.18847,-19.68924 v -5.2e-4 c -0.28711,-10.57415 5.6839,-17.20663 10.00189,-19.45845 5.04429,-2.3985 8.85514,-3.45497 12.9136,-3.45491 4.0219,6e-4 7.97283,1.05984 11.45563,3.07113 3.82516,1.75806 7.8964,3.03193 11.45564,3.06813 4.05844,5e-5 7.86927,-1.05641 11.17554,-2.90731 l 0.56472,-0.32456 v 0 c 3.30627,-1.85091 7.11705,-2.90738 11.17555,-2.90732 4.0219,6e-4 7.97279,1.05986 11.45563,3.07113 3.8271,1.75802 7.89686,3.03193 11.45664,3.06813 4.05513,5e-5 7.86339,-1.05456 11.16779,-2.90266 l 0.54467,-0.31419 c 0.003,-0.005 0.0107,-0.006 0.016,-0.009 6.69842,-3.99909 11.18528,-11.31889 11.18536,-19.68717 0.002,-0.11293 0,-0.22767 0,-0.32501 0.0502,-3.78877 1.0408,-7.61747 3.0701,-11.13214 2.01147,-3.48277 4.90432,-6.37498 8.3876,-8.38554 3.4358,-2.43609 6.57418,-5.3235 8.38561,-8.38853 2.03006,-3.51615 3.02062,-7.34652 3.07009,-11.13679 v -0.6103 c -0.10632,-7.80873 -4.2024,-15.36497 -11.45666,-19.55333 -0.0885,-0.0559 -0.18821,-0.10893 -0.28112,-0.16271 l -0.002,-10e-4 c -3.2554,-1.93781 -6.07503,-4.70962 -8.1039,-8.22379 -2.01043,-3.48337 -3.06848,-7.43478 -3.06803,-11.45667 v -0.32653 c 0.0502,-3.78864 1.04041,-7.61689 3.06958,-11.13162 2.01147,-3.48277 4.90444,-6.37509 8.3876,-8.38553 3.43402,-2.43225 6.57374,-5.32252 8.3846,-8.38653 2.02929,-3.51472 3.01938,-7.34337 3.06958,-11.13214 l 0.002,-0.65154 v 4e-5 c 0.0502,-3.78863 1.0408,-7.61688 3.0701,-11.13162 2.01147,-3.48276 4.90444,-6.37509 8.3876,-8.38553 3.43402,-2.43224 6.57374,-5.32251 8.3846,-8.38653 2.03012,-3.51615 3.02063,-7.34652 3.0701,-11.13679 v -0.6103 c -0.10627,-7.80549 -4.19921,-15.35875 -11.44788,-19.54816 l -0.009,-0.005 c -0.0896,-0.0533 -0.18471,-0.10668 -0.27646,-0.15968 l -0.005,-0.003 c -3.256,-1.93785 -6.07676,-4.71009 -8.10596,-8.22482 -2.01043,-3.48336 -3.06848,-7.43477 -3.07004,-11.4566 -0.002,-4.02184 -1.0596,-7.9735 -3.07002,-11.45673 -2.02653,-3.51017 -4.84252,-6.27955 -8.09304,-8.21707 l -0.0114,-0.007 -0.53485,-0.3085 c -8.8e-4,-4.9e-4 -0.002,-5.5e-4 -0.003,-0.002 -7.52021,-3.7586 -16.00688,-3.38332 -22.94116,0.30957 -3.30627,1.85091 -7.11705,2.90737 -11.17555,2.90731 -4.02183,-6e-4 -7.97279,-1.0598 -11.45563,-3.07113 l -0.28268,-0.16247 c -3.25607,-1.93786 -6.07677,-4.70951 -8.10597,-8.22431 -2.01043,-3.48336 -3.06847,-7.43483 -3.06803,-11.45666 -0.39046,-4.18958 -1.32284,-8.35439 -3.07103,-11.45466 -2.02821,-3.51306 -4.84677,-6.28398 -8.1008,-8.22172 l -0.56875,-0.33057 v -4.8e-4 c -3.25607,-1.93786 -6.07625,-4.70951 -8.10545,-8.22431 -4.19738,-7.33052 -2.33357,-15.95322 -6.13906,-22.910322 -4.51355,-7.020142 -11.95854,-11.180087 -19.9057,-11.461331 -8.21823,0.553918 -15.22135,5.853518 -22.85232,6.143844 -4.19958,-0.387865 -8.35844,-1.323986 -11.45622,-3.068657 -3.48272,-2.011316 -7.43374,-3.070531 -11.45563,-3.071131 -4.05838,-5e-5 -7.86938,1.05644 -11.17554,2.907316 l -0.01,0.0062 -0.51315,0.296105 c -0.002,10e-4 -0.004,0.0016 -0.006,0.0036 -6.7111,3.995879 -11.20835,11.322379 -11.23384,17.567886 -0.0255,6.2455 -1.01609,10.07414 -3.04539,13.58887 -2.01147,3.48268 -4.90381,6.37446 -8.43961,8.38758 -3.5358,2.01313 -7.34658,3.06959 -11.40508,3.06953 -4.02174,-6e-4 -7.97279,-1.0598 -11.45563,-3.07113 -3.82391,-1.75782 -7.89616,-3.03193 -11.45511,-3.06813 -4.37101,0.31874 -8.35212,1.36081 -11.70009,3.20869 -3.34703,1.87374 -7.15812,2.9302 -11.21646,2.93014 z"
         sodipodi:nodetypes="ccccccccccccccccccccccccccccccccccccccccccccccccccccccccccccccccccccccccccccccccccccccccccccccccccccccccccccccccccccccccccccccccccccccccccccccccccccccccccccccccccccccccccccccsccccccccccccccccccccccccccccc" />
    </g>
    <g
       aria-label="OpenStudy "
       id="text416"
       style="font-size:72.0188px;letter-spacing:-1.81512px;stroke-width:13.0098;stroke-linejoin:round;fill:#ffffff;fill-opacity:1"
       transform="matrix(0.82726033,0,0,0.82726033,23.025939,11.426003)">
      <path
         d="m 180.44127,39.912691 q 3.20005,3.516543 4.88799,8.61553 1.72311,5.098988 1.72311,11.569427 0,6.470439 -1.75827,11.604591 -1.72311,5.098987 -4.85283,8.510034 -3.23522,3.551708 -7.66606,5.345145 -4.39568,1.793437 -10.05732,1.793437 -5.52097,0 -10.05731,-1.828602 -4.50117,-1.828602 -7.66606,-5.30998 -3.16489,-3.481377 -4.888,-8.545199 -1.68794,-5.063822 -1.68794,-11.569426 0,-6.400108 1.68794,-11.46393 1.68794,-5.098987 4.92316,-8.721027 3.09456,-3.446212 7.66607,-5.274814 4.60667,-1.828602 10.02214,-1.828602 5.62647,0 10.09248,1.863767 4.50118,1.828603 7.6309,5.239649 z m -0.63298,20.184957 q 0,-10.197975 -4.5715,-15.718947 -4.57151,-5.556138 -12.48373,-5.556138 -7.98255,0 -12.55406,5.556138 -4.53634,5.520972 -4.53634,15.718947 0,10.30347 4.64184,15.789277 4.64183,5.450642 12.44856,5.450642 7.80672,0 12.4134,-5.450642 4.64183,-5.485807 4.64183,-15.789277 z"
         id="path419"
         style="fill:#ffffff;fill-opacity:1" />
      <path
         d="m 230.31933,66.146101 q 0,4.782499 -1.37145,8.756192 -1.37145,3.938528 -3.8682,6.681432 -2.32092,2.602242 -5.48581,4.044024 -3.12972,1.406617 -6.64626,1.406617 -3.05939,0 -5.55614,-0.668143 -2.46158,-0.668143 -5.02866,-2.07476 v 16.457417 h -6.6111 V 46.980943 h 6.6111 v 4.114355 q 2.63741,-2.215422 5.9078,-3.69237 3.30555,-1.512114 7.03308,-1.512114 7.10342,0 11.04195,5.380311 3.97369,5.345145 3.97369,14.874976 z m -6.82209,0.175828 q 0,-7.103417 -2.42642,-10.61996 -2.42641,-3.516543 -7.45507,-3.516543 -2.8484,0 -5.73196,1.23079 -2.88357,1.23079 -5.52098,3.23522 v 22.259716 q 2.81324,1.265956 4.81767,1.723106 2.03959,0.457151 4.60667,0.457151 5.52097,0 8.61553,-3.727536 3.09456,-3.727535 3.09456,-11.041944 z"
         id="path421"
         style="fill:#ffffff;fill-opacity:1" />
      <path
         d="m 271.68736,67.306561 h -28.94115 q 0,3.622039 1.09013,6.329777 1.09013,2.672572 2.98906,4.395679 1.8286,1.68794 4.32535,2.53191 2.53191,0.843971 5.55614,0.843971 4.00885,0 8.05288,-1.582445 4.07919,-1.617609 5.8023,-3.164888 h 0.35165 v 7.208913 q -3.34072,1.406617 -6.82209,2.356083 -3.48138,0.949467 -7.31441,0.949467 -9.77599,0 -15.2618,-5.274814 -5.48581,-5.30998 -5.48581,-15.050804 0,-9.635328 5.23965,-15.296962 5.27482,-5.661634 13.85518,-5.661634 7.94739,0 12.23757,4.641837 4.32535,4.641837 4.32535,13.187036 z m -6.43527,-5.063822 q -0.0352,-5.204484 -2.63741,-8.052883 -2.56708,-2.8484 -7.84189,-2.8484 -5.30998,0 -8.47487,3.129723 -3.12972,3.129723 -3.55171,7.77156 z"
         id="path423"
         style="fill:#ffffff;fill-opacity:1" />
      <path
         d="m 312.73889,86.260727 h -6.6111 V 63.895514 q 0,-2.707738 -0.31649,-5.063822 -0.31648,-2.391249 -1.16045,-3.727535 -0.87914,-1.476948 -2.53192,-2.180257 -1.65277,-0.738474 -4.29018,-0.738474 -2.70774,0 -5.66163,1.336286 -2.9539,1.336287 -5.66164,3.411047 v 29.327968 h -6.6111 V 46.980943 h 6.6111 v 4.360513 q 3.09456,-2.567077 6.40011,-4.008859 3.30555,-1.441783 6.78693,-1.441783 6.36494,0 9.70566,3.833032 3.34071,3.833032 3.34071,11.041945 z"
         id="path425"
         style="fill:#ffffff;fill-opacity:1" />
      <path
         d="m 362.23014,71.31542 q 0,3.059392 -1.44179,6.048453 -1.40661,2.989062 -3.97369,5.063822 -2.81323,2.250588 -6.57594,3.516543 -3.72753,1.265956 -9.00235,1.265956 -5.66163,0 -10.19797,-1.054963 -4.50117,-1.054963 -9.17818,-3.129724 v -8.721026 h 0.49232 q 3.97369,3.30555 9.17818,5.098987 5.20448,1.793437 9.77599,1.793437 6.47043,0 10.05731,-2.426414 3.62204,-2.426415 3.62204,-6.470439 0,-3.481378 -1.72311,-5.134153 -1.68794,-1.652775 -5.16932,-2.567076 -2.6374,-0.703309 -5.73196,-1.16046 -3.05939,-0.45715 -6.50561,-1.160459 -6.96275,-1.476948 -10.33863,-5.028656 -3.34072,-3.586874 -3.34072,-9.318839 0,-6.575935 5.55614,-10.760621 5.55614,-4.219852 14.10134,-4.219852 5.52097,0 10.12764,1.054963 4.60667,1.054963 8.15838,2.602242 v 8.22871 h -0.49232 q -2.98906,-2.53191 -7.87705,-4.184686 -4.85283,-1.68794 -9.95182,-1.68794 -5.5913,0 -9.00235,2.320918 -3.37588,2.320918 -3.37588,5.978123 0,3.270385 1.68794,5.134153 1.68794,1.863767 5.94296,2.848399 2.25059,0.492316 6.40011,1.195625 4.14952,0.703309 7.03308,1.441783 5.83746,1.547279 8.79136,4.677002 2.9539,3.129723 2.9539,8.756192 z"
         id="path427"
         style="fill:#ffffff;fill-opacity:1" />
      <path
         d="m 391.46608,85.909073 q -1.86377,0.492316 -4.07919,0.808805 -2.18025,0.316488 -3.90336,0.316488 -6.01329,0 -9.14301,-3.235219 -3.12972,-3.23522 -3.12972,-10.373802 V 52.53708 h -4.46601 v -5.556137 h 4.46601 V 35.69284 h 6.6111 v 11.288103 h 13.64418 V 52.53708 H 377.8219 v 17.899204 q 0,3.094558 0.14066,4.852829 0.14066,1.723106 0.98463,3.23522 0.77364,1.406617 2.10993,2.07476 1.37145,0.632978 4.14952,0.632978 1.61761,0 3.37588,-0.457151 1.75827,-0.492316 2.53191,-0.808805 h 0.35165 z"
         id="path429"
         style="fill:#ffffff;fill-opacity:1" />
      <path
         d="m 430.19671,86.260727 h -6.6111 v -4.360513 q -3.34072,2.637407 -6.40011,4.044024 -3.05939,1.406617 -6.75176,1.406617 -6.18912,0 -9.63533,-3.762701 -3.44621,-3.797866 -3.44621,-11.112275 V 46.980943 h 6.6111 v 22.365213 q 0,2.989061 0.28132,5.134152 0.28132,2.109926 1.19562,3.622039 0.94947,1.547279 2.46158,2.250588 1.51212,0.703308 4.39568,0.703308 2.56708,0 5.59131,-1.336286 3.05939,-1.336286 5.6968,-3.411047 V 46.980943 h 6.6111 z"
         id="path431"
         style="fill:#ffffff;fill-opacity:1" />
      <path
         d="m 473.25267,86.260727 h -6.6111 v -4.114355 q -2.8484,2.46158 -5.94295,3.833031 -3.09456,1.371452 -6.7166,1.371452 -7.03309,0 -11.18261,-5.415476 -4.11435,-5.415476 -4.11435,-15.015638 0,-4.993491 1.40662,-8.896854 1.44178,-3.903362 3.86819,-6.646266 2.39125,-2.672572 5.55614,-4.07919 3.20005,-1.406617 6.6111,-1.406617 3.09456,0 5.48581,0.668143 2.39125,0.632978 5.02865,2.00443 V 31.543319 h 6.6111 z m -6.6111,-9.670493 v -22.54104 q -2.67257,-1.195625 -4.78249,-1.652775 -2.10993,-0.457151 -4.60668,-0.457151 -5.55613,0 -8.65069,3.868197 -3.09456,3.868198 -3.09456,10.971614 0,6.997921 2.39125,10.655125 2.39125,3.622039 7.66606,3.622039 2.81324,0 5.6968,-1.23079 2.88357,-1.265955 5.38031,-3.235219 z"
         id="path433"
         style="fill:#ffffff;fill-opacity:1" />
      <path
         d="m 518.41857,46.980943 -22.92786,53.767937 h -7.06825 l 7.31441,-16.387086 -15.64862,-37.380851 h 7.17375 l 12.06174,29.116975 12.16724,-29.116975 z"
         id="path435"
         style="fill:#ffffff;fill-opacity:1" />
    </g>
  </g>
</svg>
