<?xml version="1.0" encoding="UTF-8" standalone="no"?>
<!-- Generator: Adobe Illustrator 24.3.0, SVG Export Plug-In . SVG Version: 6.00 Build 0)  -->

<svg
   version="1.1"
   id="Logo"
   x="0px"
   y="0px"
   viewBox="0 0 277.63 96.64"
   xml:space="preserve"
   sodipodi:docname="U_Logo_MadeWith_RichBlack_RGB.svg"
   width="277.63"
   height="96.639999"
   inkscape:version="1.2 (dc2aeda, 2022-05-15)"
   xmlns:inkscape="http://www.inkscape.org/namespaces/inkscape"
   xmlns:sodipodi="http://sodipodi.sourceforge.net/DTD/sodipodi-0.dtd"
   xmlns="http://www.w3.org/2000/svg"
   xmlns:svg="http://www.w3.org/2000/svg"><defs
   id="defs181" /><sodipodi:namedview
   id="namedview179"
   pagecolor="#505050"
   bordercolor="#eeeeee"
   borderopacity="1"
   inkscape:showpageshadow="0"
   inkscape:pageopacity="0"
   inkscape:pagecheckerboard="0"
   inkscape:deskcolor="#505050"
   showgrid="false"
   inkscape:zoom="3.7172011"
   inkscape:cx="120.25177"
   inkscape:cy="60.125883"
   inkscape:window-width="1652"
   inkscape:window-height="1205"
   inkscape:window-x="0"
   inkscape:window-y="25"
   inkscape:window-maximized="0"
   inkscape:current-layer="Logo" />
<style
   type="text/css"
   id="style132">
	.st0{fill:#4C4C4C;}
	.st1{fill:#808080;}
</style>
<path
   d="M 108.05,52.61 V 25.2 h 11.5 V 53 c 0,4.55 2.34,7.6 7.99,7.6 5.33,0 7.86,-3.25 7.86,-7.79 V 25.2 h 11.5 v 27.41 c 0,10.72 -6.43,17.21 -19.35,17.21 -13,0 -19.5,-6.37 -19.5,-17.21 z"
   id="path134" />
<path
   d="m 152.28,35.72 h 10.2 v 4.55 h 0.2 c 2.47,-3.57 5.65,-5.52 10.26,-5.52 7.27,0 11.56,5.2 11.56,12.6 V 68.98 H 173.91 V 49.49 c 0,-3.51 -1.75,-5.91 -5.2,-5.91 -3.51,0 -5.84,2.92 -5.84,7.01 v 18.38 h -10.59 z"
   id="path136" />
<path
   d="m 189.94,22.54 h 10.59 v 8.58 h -10.59 z m 0,13.18 h 10.59 v 33.25 h -10.59 z"
   id="path138" />
<path
   d="M 208.86,60.21 V 44.3 h -4.42 v -8.58 h 4.42 V 25.2 h 10.33 v 10.52 h 6.04 v 8.58 h -6.04 v 13.63 c 0,2.6 1.43,3.25 3.7,3.25 0.91,0 1.95,-0.07 2.34,-0.07 v 7.73 c -0.91,0.26 -2.92,0.52 -5.78,0.52 -6.18,0 -10.59,-2.01 -10.59,-9.15 z"
   id="path140" />
<path
   d="m 231.78,71.7 h 3.64 c 3.12,0 4.35,-1.23 4.35,-3.51 0,-1.43 -0.65,-3.38 -2.01,-6.88 l -9.81,-25.59 h 11.17 l 4.48,14.16 c 1.04,3.25 2.08,7.66 2.08,7.66 h 0.13 c 0,0 0.91,-4.42 1.95,-7.66 l 4.35,-14.16 h 10.59 l -11.5,33.71 c -2.66,7.79 -5.85,10.52 -12.53,10.52 h -6.88 V 71.7 Z"
   id="path142" />
<path
   class="st0"
   d="M 85.56,67.62 V 22.54 L 46.52,0 v 17.29 l 15.3,8.83 c 0.55,0.31 0.57,1.17 0,1.48 0,0 -18.18,10.5 -18.18,10.5 -0.55,0.32 -1.2,0.3 -1.71,0 L 23.75,27.6 c -0.56,-0.3 -0.57,-1.18 0,-1.48 L 39.04,17.29 V 0 L 0,22.54 v 45.08 -0.21 0.21 L 14.97,58.98 V 41.32 c -0.01,-0.63 0.73,-1.08 1.28,-0.74 l 18.18,10.5 c 0.55,0.32 0.86,0.89 0.86,1.48 v 20.99 c 0.01,0.63 -0.73,1.08 -1.28,0.74 L 18.71,65.46 3.74,74.1 42.78,96.64 81.82,74.1 66.85,65.46 51.55,74.29 c -0.54,0.33 -1.3,-0.1 -1.28,-0.74 0,0 0,-20.99 0,-20.99 0,-0.63 0.35,-1.19 0.86,-1.48 l 18.18,-10.5 c 0.54,-0.33 1.3,0.09 1.28,0.74 v 17.66 z"
   id="path144" />
<path
   d="M 42.78,96.64 81.82,74.1 66.85,65.46 51.55,74.29 c -0.54,0.33 -1.3,-0.1 -1.28,-0.74 0,0 0,-20.99 0,-20.99 0,-0.63 0.35,-1.19 0.86,-1.48 l 18.18,-10.5 c 0.54,-0.33 1.3,0.09 1.28,0.74 0,0 0,17.66 0,17.66 l 14.97,8.64 V 22.54 l -42.78,24.7 z"
   id="path146" />
<path
   class="st1"
   d="m 46.52,0 v 17.29 l 15.3,8.83 c 0.55,0.31 0.57,1.17 0,1.48 0,0 -18.18,10.5 -18.18,10.5 -0.55,0.32 -1.2,0.3 -1.71,0 L 23.75,27.6 c -0.56,-0.3 -0.57,-1.18 0,-1.48 0,0 15.29,-8.83 15.29,-8.83 V 0 L 0,22.54 42.78,47.24 85.56,22.54 Z"
   id="path148" />
<path
   class="st0"
   d="M 34.02,74.29 18.72,65.46 3.75,74.1 42.79,96.64 V 47.24 L 0.01,22.54 v 45.08 -0.21 0.21 L 14.98,58.98 V 41.32 c -0.01,-0.63 0.73,-1.08 1.28,-0.74 0,0 18.18,10.5 18.18,10.5 0.55,0.32 0.86,0.89 0.86,1.48 v 20.99 c 0.01,0.62 -0.73,1.07 -1.28,0.74 z"
   id="path150" />
<g
   id="g156"
   transform="translate(-133.97)">
	<path
   d="m 411.27,38.31 c -0.22,-0.51 -0.52,-0.96 -0.91,-1.35 -0.39,-0.39 -0.84,-0.69 -1.35,-0.91 -0.51,-0.22 -1.06,-0.33 -1.65,-0.33 -0.59,0 -1.14,0.11 -1.65,0.33 -0.51,0.22 -0.96,0.52 -1.35,0.91 -0.39,0.39 -0.69,0.84 -0.91,1.35 -0.22,0.51 -0.33,1.06 -0.33,1.65 0,0.59 0.11,1.14 0.33,1.65 0.22,0.51 0.52,0.96 0.91,1.35 0.39,0.39 0.84,0.69 1.35,0.91 0.51,0.22 1.06,0.33 1.65,0.33 0.59,0 1.14,-0.11 1.65,-0.33 0.51,-0.22 0.96,-0.52 1.35,-0.91 0.39,-0.39 0.69,-0.84 0.91,-1.35 0.22,-0.51 0.33,-1.06 0.33,-1.65 0,-0.59 -0.11,-1.14 -0.33,-1.65 z m -1.13,3.27 c -0.29,0.49 -0.68,0.88 -1.17,1.17 -0.49,0.29 -1.03,0.43 -1.62,0.43 -0.59,0 -1.13,-0.14 -1.62,-0.43 -0.49,-0.29 -0.88,-0.68 -1.17,-1.17 -0.29,-0.49 -0.43,-1.03 -0.43,-1.62 0,-0.59 0.14,-1.13 0.43,-1.62 0.29,-0.49 0.68,-0.88 1.17,-1.17 0.49,-0.29 1.03,-0.43 1.62,-0.43 0.59,0 1.13,0.14 1.62,0.43 0.49,0.29 0.88,0.68 1.17,1.17 0.29,0.49 0.43,1.03 0.43,1.62 0.01,0.59 -0.14,1.13 -0.43,1.62 z"
   id="path152" />
	<path
   d="m 408.84,39.93 c 0.14,-0.2 0.21,-0.44 0.21,-0.73 0,-0.28 -0.07,-0.52 -0.2,-0.7 -0.13,-0.19 -0.29,-0.32 -0.48,-0.41 -0.19,-0.09 -0.36,-0.13 -0.52,-0.13 h -1.98 v 3.91 h 0.86 v -1.33 h 0.85 l 0.69,1.33 h 0.94 l -0.81,-1.52 c 0.17,-0.11 0.32,-0.24 0.44,-0.42 z m -2.11,-1.34 h 0.82 c 0.1,0 0.22,0.04 0.36,0.13 0.14,0.09 0.2,0.25 0.2,0.49 0,0.23 -0.07,0.41 -0.2,0.52 -0.14,0.12 -0.26,0.17 -0.38,0.17 h -0.8 z"
   id="path154" />
</g>

</svg>
